<svg width="57" height="57" viewBox="0 0 57 57" fill="none" xmlns="http://www.w3.org/2000/svg">
<g filter="url(#filter0_d_46_400)">
<circle cx="28.4272" cy="28.4271" r="17.041" transform="rotate(-24.2618 28.4272 28.4271)" fill="#039ECF"/>
</g>
<circle cx="28.4273" cy="28.4272" r="27.9028" transform="rotate(-24.2618 28.4273 28.4272)" fill="#039ECF" fill-opacity="0.26"/>
<path fill-rule="evenodd" clip-rule="evenodd" d="M28.6287 36.1181C29.5967 36.1181 35.4048 32.3734 35.4048 27.6926C35.4048 23.0118 32.371 21.1395 28.6287 21.1395C24.8864 21.1395 21.8527 23.4799 21.8527 27.6926C21.8527 32.3734 27.6607 36.1181 28.6287 36.1181ZM28.6287 30.372C30.2326 30.372 31.5327 29.1146 31.5327 27.5635C31.5327 26.0124 30.2326 24.755 28.6287 24.755C27.0249 24.755 25.7247 26.0124 25.7247 27.5635C25.7247 29.1146 27.0249 30.372 28.6287 30.372Z" fill="white"/>
<defs>
<filter id="filter0_d_46_400" x="7.38199" y="11.382" width="42.0904" height="42.0904" filterUnits="userSpaceOnUse" color-interpolation-filters="sRGB">
<feFlood flood-opacity="0" result="BackgroundImageFix"/>
<feColorMatrix in="SourceAlpha" type="matrix" values="0 0 0 0 0 0 0 0 0 0 0 0 0 0 0 0 0 0 127 0" result="hardAlpha"/>
<feOffset dy="4"/>
<feGaussianBlur stdDeviation="2"/>
<feComposite in2="hardAlpha" operator="out"/>
<feColorMatrix type="matrix" values="0 0 0 0 0 0 0 0 0 0 0 0 0 0 0 0 0 0 0.25 0"/>
<feBlend mode="normal" in2="BackgroundImageFix" result="effect1_dropShadow_46_400"/>
<feBlend mode="normal" in="SourceGraphic" in2="effect1_dropShadow_46_400" result="shape"/>
</filter>
</defs>
</svg>
