<svg width="54" height="54" viewBox="0 0 54 54" fill="none" xmlns="http://www.w3.org/2000/svg">
<path fill-rule="evenodd" clip-rule="evenodd" d="M27 54C41.9117 54 54 41.9117 54 27C54 12.0883 41.9117 0 27 0C12.0883 0 0 12.0883 0 27C0 41.9117 12.0883 54 27 54ZM43.2218 19.1628C44.4854 17.7925 44.3988 15.6573 43.0284 14.3938C41.6581 13.1303 39.5229 13.2168 38.2594 14.5872L23.5262 30.5658L15.8865 22.926C14.5685 21.608 12.4316 21.608 11.1135 22.926C9.7955 24.244 9.79549 26.381 11.1135 27.699L18.7532 35.3387C21.4651 38.0507 25.8888 37.961 28.4886 35.1415L43.2218 19.1628Z" fill="#28C0F0"/>
</svg>
