<svg width="42" height="42" viewBox="0 0 42 42" fill="none" xmlns="http://www.w3.org/2000/svg">
<rect width="42" height="42" rx="8" fill="#28C0F0"/>
<path d="M19.2635 29.526C21.5407 29.5255 23.7523 28.7632 25.5461 27.3605L31.1859 33L33 31.186L27.3602 25.5465C28.7637 23.7526 29.5265 21.5407 29.5271 19.263C29.5271 13.6042 24.9226 9 19.2635 9C13.6045 9 9 13.6042 9 19.263C9 24.9217 13.6045 29.526 19.2635 29.526ZM19.2635 11.5657C23.5088 11.5657 26.9612 15.018 26.9612 19.263C26.9612 23.508 23.5088 26.9602 19.2635 26.9602C15.0183 26.9602 11.5659 23.508 11.5659 19.263C11.5659 15.018 15.0183 11.5657 19.2635 11.5657Z" fill="white"/>
<path d="M21.2583 16.7815C21.8179 17.3454 22.1266 18.0905 22.1266 18.88H25.08C25.0813 18.1 24.9288 17.3275 24.6312 16.6071C24.3336 15.8867 23.8969 15.2327 23.3463 14.683C21.1106 12.439 17.2343 12.439 15 14.683L17.0851 16.7845C18.2074 15.6595 20.1419 15.6625 21.2583 16.7815Z" fill="white"/>
</svg>
