<svg width="51" height="49" viewBox="0 0 51 49" fill="none" xmlns="http://www.w3.org/2000/svg">
<path d="M49.3516 17.2543L34.0628 15.0188L27.2283 1.07841C27.0416 0.696736 26.7345 0.387759 26.3552 0.199949C25.4038 -0.272605 24.2476 0.12119 23.7719 1.07841L16.9374 15.0188L1.64862 17.2543C1.22711 17.3149 0.841724 17.5148 0.546666 17.8177C0.189957 18.1866 -0.00660513 18.6829 0.000169483 19.1975C0.00694409 19.7121 0.216502 20.2029 0.582795 20.5622L11.6445 31.4127L9.03108 46.7344C8.9698 47.0908 9.009 47.4574 9.14424 47.7925C9.27948 48.1276 9.50535 48.4179 9.79624 48.6305C10.0871 48.8431 10.4314 48.9694 10.79 48.9951C11.1486 49.0208 11.5072 48.9449 11.8251 48.7761L25.5001 41.5423L39.1751 48.7761C39.5485 48.976 39.982 49.0426 40.3975 48.9699C41.4453 48.7882 42.1498 47.7885 41.9692 46.7344L39.3558 31.4127L50.4174 20.5622C50.7185 20.2653 50.9172 19.8776 50.9775 19.4535C51.14 18.3933 50.4054 17.4118 49.3516 17.2543Z" fill="#28C0F0"/>
</svg>
