<svg width="1101" height="128" viewBox="0 0 1101 128" fill="none" xmlns="http://www.w3.org/2000/svg">
<path d="M0 81.0494H1101V127.049H0V81.0494Z" fill="#43CCF8"/>
<rect y="81.0494" width="1101" height="19" fill="#0BB9F0"/>
<g clip-path="url(#clip0_71_946)">
<path d="M880.866 65.45V66.9044" stroke="#A0DAD2" stroke-width="0.73" stroke-miterlimit="10"/>
<path d="M875.152 41.7558C875.03 41.5255 874.849 41.333 874.628 41.1988C874.407 41.0646 874.154 40.9937 873.896 40.9937C873.638 40.9937 873.385 41.0646 873.163 41.1988C872.942 41.333 872.761 41.5255 872.64 41.7558C870.186 45.8468 865 56.0453 865 68.9799C865 75.5954 868.532 81.6023 873.896 81.6023C879.259 81.6023 882.792 75.5954 882.792 68.9799C882.792 56.0188 877.601 45.8468 875.152 41.7558Z" fill="#256B62"/>
<path d="M873.896 47.2705V91.3457" stroke="#0B2B52" stroke-width="0.73" stroke-miterlimit="10"/>
<path d="M869.877 91.3457H877.904" stroke="white" stroke-width="0.73" stroke-miterlimit="10"/>
<path d="M877.465 64.7249V66.1793" stroke="#A0DAD2" stroke-width="0.73" stroke-miterlimit="10"/>
<path d="M867.852 73.0815V74.536" stroke="#A0DAD2" stroke-width="0.73" stroke-miterlimit="10"/>
<path d="M867.852 64.4814V65.9359" stroke="#A0DAD2" stroke-width="0.73" stroke-miterlimit="10"/>
<path d="M876.549 51.4939V52.9484" stroke="#A0DAD2" stroke-width="0.73" stroke-miterlimit="10"/>
<path d="M876.549 73.8066V75.2611" stroke="#A0DAD2" stroke-width="0.73" stroke-miterlimit="10"/>
<path d="M878.511 69.9697V71.4242" stroke="#A0DAD2" stroke-width="0.73" stroke-miterlimit="10"/>
<path d="M877.904 57.2256V58.6801" stroke="#A0DAD2" stroke-width="0.73" stroke-miterlimit="10"/>
<path d="M872.624 67.4769V68.9314" stroke="#A0DAD2" stroke-width="0.73" stroke-miterlimit="10"/>
<path d="M871.776 54.5105V55.965" stroke="#A0DAD2" stroke-width="0.73" stroke-miterlimit="10"/>
<path d="M870.861 60.5227V61.9772" stroke="#A0DAD2" stroke-width="0.73" stroke-miterlimit="10"/>
<path d="M871.776 46.9636V48.4181" stroke="#A0DAD2" stroke-width="0.73" stroke-miterlimit="10"/>
<path d="M870.139 70.7V72.1544" stroke="#A0DAD2" stroke-width="0.73" stroke-miterlimit="10"/>
<path d="M871.384 76.3788V77.8333" stroke="#A0DAD2" stroke-width="0.73" stroke-miterlimit="10"/>
<path d="M875.701 54.14L873.896 57.9505" stroke="#0B2B52" stroke-width="0.73" stroke-miterlimit="10"/>
<path d="M871.776 57.9506L873.896 62.2639" stroke="#0B2B52" stroke-width="0.73" stroke-miterlimit="10"/>
<path d="M879.364 66.1803L873.896 73.0816" stroke="#0B2B52" stroke-width="0.73" stroke-miterlimit="10"/>
<path d="M896.606 32.8117C896.485 32.5815 896.304 32.3889 896.083 32.2547C895.861 32.1205 895.608 32.0496 895.35 32.0496C895.092 32.0496 894.839 32.1205 894.618 32.2547C894.397 32.3889 894.216 32.5815 894.094 32.8117C891.64 36.8974 886.455 47.1012 886.455 60.0358C886.455 66.6513 889.987 72.6582 895.35 72.6582C900.714 72.6582 904.246 66.6513 904.246 60.0358C904.246 47.0853 899.055 36.8974 896.606 32.8117Z" fill="#3CAAB0"/>
<path d="M895.35 38.3264V82.4016" stroke="#0B2B52" stroke-width="0.73" stroke-miterlimit="10"/>
<path d="M891.332 82.4015H899.359" stroke="white" stroke-width="0.73" stroke-miterlimit="10"/>
<path d="M898.919 55.7806V57.2351" stroke="#A0DAD2" stroke-width="0.73" stroke-miterlimit="10"/>
<path d="M889.306 64.1375V65.5919" stroke="#A0DAD2" stroke-width="0.73" stroke-miterlimit="10"/>
<path d="M889.306 55.5372V56.9917" stroke="#A0DAD2" stroke-width="0.73" stroke-miterlimit="10"/>
<path d="M898.003 42.5497V44.0042" stroke="#A0DAD2" stroke-width="0.73" stroke-miterlimit="10"/>
<path d="M898.003 64.8624V66.3169" stroke="#A0DAD2" stroke-width="0.73" stroke-miterlimit="10"/>
<path d="M899.966 61.0255V62.48" stroke="#A0DAD2" stroke-width="0.73" stroke-miterlimit="10"/>
<path d="M899.359 48.2814V49.7359" stroke="#A0DAD2" stroke-width="0.73" stroke-miterlimit="10"/>
<path d="M894.079 58.5328V59.9873" stroke="#A0DAD2" stroke-width="0.73" stroke-miterlimit="10"/>
<path d="M893.231 45.5664V47.0209" stroke="#A0DAD2" stroke-width="0.73" stroke-miterlimit="10"/>
<path d="M892.315 51.5786V53.0331" stroke="#A0DAD2" stroke-width="0.73" stroke-miterlimit="10"/>
<path d="M893.231 38.0194V39.4739" stroke="#A0DAD2" stroke-width="0.73" stroke-miterlimit="10"/>
<path d="M891.593 61.7559V63.2103" stroke="#A0DAD2" stroke-width="0.73" stroke-miterlimit="10"/>
<path d="M892.839 67.4346V68.889" stroke="#A0DAD2" stroke-width="0.73" stroke-miterlimit="10"/>
<path d="M897.156 45.1959L895.35 49.0065" stroke="#0B2B52" stroke-width="0.73" stroke-miterlimit="10"/>
<path d="M893.231 49.0065L895.35 53.3198" stroke="#0B2B52" stroke-width="0.73" stroke-miterlimit="10"/>
<path d="M900.819 57.2361L895.35 64.1374" stroke="#0B2B52" stroke-width="0.73" stroke-miterlimit="10"/>
<path d="M916.36 49.3928C916.239 49.1626 916.058 48.9701 915.837 48.8359C915.615 48.7016 915.362 48.6307 915.104 48.6307C914.846 48.6307 914.593 48.7016 914.372 48.8359C914.151 48.9701 913.97 49.1626 913.848 49.3928C911.394 53.4839 906.208 63.6823 906.208 76.617C906.208 83.2378 909.741 89.2394 915.104 89.2394C920.468 89.2394 924 83.2378 924 76.617C924 63.6665 918.809 53.4839 916.36 49.3928Z" fill="#A0DAD2"/>
<path d="M915.104 54.9075V98.9826" stroke="#0B2B52" stroke-width="0.73" stroke-miterlimit="10"/>
<path d="M911.085 98.9827H919.113" stroke="white" stroke-width="0.73" stroke-miterlimit="10"/>
<path d="M918.673 72.3618V73.8163" stroke="#A0DAD2" stroke-width="0.73" stroke-miterlimit="10"/>
<path d="M909.06 80.7186V82.1731" stroke="#A0DAD2" stroke-width="0.73" stroke-miterlimit="10"/>
<path d="M909.06 72.1184V73.5729" stroke="#A0DAD2" stroke-width="0.73" stroke-miterlimit="10"/>
<path d="M917.757 59.1309V60.5853" stroke="#A0DAD2" stroke-width="0.73" stroke-miterlimit="10"/>
<path d="M917.757 81.4489V82.9033" stroke="#A0DAD2" stroke-width="0.73" stroke-miterlimit="10"/>
<path d="M919.72 77.6119V79.0664" stroke="#A0DAD2" stroke-width="0.73" stroke-miterlimit="10"/>
<path d="M919.113 64.8624V66.3169" stroke="#A0DAD2" stroke-width="0.73" stroke-miterlimit="10"/>
<path d="M913.833 75.1191V76.5736" stroke="#A0DAD2" stroke-width="0.73" stroke-miterlimit="10"/>
<path d="M912.985 62.1527V63.6072" stroke="#A0DAD2" stroke-width="0.73" stroke-miterlimit="10"/>
<path d="M912.069 68.1649V69.6194" stroke="#A0DAD2" stroke-width="0.73" stroke-miterlimit="10"/>
<path d="M912.985 54.6006V56.0551" stroke="#A0DAD2" stroke-width="0.73" stroke-miterlimit="10"/>
<path d="M911.347 78.337V79.7915" stroke="#A0DAD2" stroke-width="0.73" stroke-miterlimit="10"/>
<path d="M912.592 84.021V85.4755" stroke="#A0DAD2" stroke-width="0.73" stroke-miterlimit="10"/>
<path d="M916.91 61.777L915.104 65.5928" stroke="#0B2B52" stroke-width="0.73" stroke-miterlimit="10"/>
<path d="M912.985 65.5929L915.104 69.9009" stroke="#0B2B52" stroke-width="0.73" stroke-miterlimit="10"/>
<path d="M920.572 73.8173L915.104 80.7186" stroke="#0B2B52" stroke-width="0.73" stroke-miterlimit="10"/>
</g>
<g clip-path="url(#clip1_71_946)">
<path d="M312.95 69.4884V70.3785" stroke="#A0DAD2" stroke-width="0.73" stroke-miterlimit="10"/>
<path d="M309.366 54.9891C309.29 54.8482 309.177 54.7304 309.038 54.6482C308.899 54.5661 308.74 54.5227 308.579 54.5227C308.417 54.5227 308.258 54.5661 308.119 54.6482C307.981 54.7304 307.867 54.8482 307.791 54.9891C306.252 57.4925 303 63.7334 303 71.6486C303 75.6969 305.215 79.3728 308.579 79.3728C311.942 79.3728 314.157 75.6969 314.157 71.6486C314.157 63.7172 310.902 57.4925 309.366 54.9891Z" fill="#256B62"/>
<path d="M308.579 58.3638V85.3351" stroke="#0B2B52" stroke-width="0.73" stroke-miterlimit="10"/>
<path d="M306.058 85.3351H311.092" stroke="white" stroke-width="0.73" stroke-miterlimit="10"/>
<path d="M310.817 69.0448V69.9349" stroke="#A0DAD2" stroke-width="0.73" stroke-miterlimit="10"/>
<path d="M304.788 74.1586V75.0486" stroke="#A0DAD2" stroke-width="0.73" stroke-miterlimit="10"/>
<path d="M304.788 68.8958V69.7858" stroke="#A0DAD2" stroke-width="0.73" stroke-miterlimit="10"/>
<path d="M310.242 60.9482V61.8383" stroke="#A0DAD2" stroke-width="0.73" stroke-miterlimit="10"/>
<path d="M310.242 74.6023V75.4923" stroke="#A0DAD2" stroke-width="0.73" stroke-miterlimit="10"/>
<path d="M311.473 72.2543V73.1443" stroke="#A0DAD2" stroke-width="0.73" stroke-miterlimit="10"/>
<path d="M311.092 64.4557V65.3457" stroke="#A0DAD2" stroke-width="0.73" stroke-miterlimit="10"/>
<path d="M307.781 70.7289V71.6189" stroke="#A0DAD2" stroke-width="0.73" stroke-miterlimit="10"/>
<path d="M307.25 62.7942V63.6842" stroke="#A0DAD2" stroke-width="0.73" stroke-miterlimit="10"/>
<path d="M306.675 66.4733V67.3633" stroke="#A0DAD2" stroke-width="0.73" stroke-miterlimit="10"/>
<path d="M307.25 58.1759V59.066" stroke="#A0DAD2" stroke-width="0.73" stroke-miterlimit="10"/>
<path d="M306.223 72.7012V73.5912" stroke="#A0DAD2" stroke-width="0.73" stroke-miterlimit="10"/>
<path d="M307.004 76.1763V77.0663" stroke="#A0DAD2" stroke-width="0.73" stroke-miterlimit="10"/>
<path d="M309.711 62.5675L308.579 64.8993" stroke="#0B2B52" stroke-width="0.73" stroke-miterlimit="10"/>
<path d="M307.25 64.8993L308.579 67.5388" stroke="#0B2B52" stroke-width="0.73" stroke-miterlimit="10"/>
<path d="M312.008 69.9354L308.579 74.1586" stroke="#0B2B52" stroke-width="0.73" stroke-miterlimit="10"/>
<path d="M322.821 49.5158C322.745 49.3749 322.631 49.2571 322.492 49.175C322.354 49.0928 322.195 49.0494 322.033 49.0494C321.871 49.0494 321.713 49.0928 321.574 49.175C321.435 49.2571 321.322 49.3749 321.246 49.5158C319.707 52.016 316.455 58.2601 316.455 66.1753C316.455 70.2236 318.67 73.8995 322.033 73.8995C325.397 73.8995 327.612 70.2236 327.612 66.1753C327.612 58.2504 324.357 52.016 322.821 49.5158Z" fill="#3CAAB0"/>
<path d="M322.033 52.8905V79.8619" stroke="#0B2B52" stroke-width="0.73" stroke-miterlimit="10"/>
<path d="M319.513 79.8618H324.547" stroke="white" stroke-width="0.73" stroke-miterlimit="10"/>
<path d="M324.271 63.5715V64.4616" stroke="#A0DAD2" stroke-width="0.73" stroke-miterlimit="10"/>
<path d="M318.243 68.6853V69.5754" stroke="#A0DAD2" stroke-width="0.73" stroke-miterlimit="10"/>
<path d="M318.243 63.4225V64.3125" stroke="#A0DAD2" stroke-width="0.73" stroke-miterlimit="10"/>
<path d="M323.697 55.4749V56.3649" stroke="#A0DAD2" stroke-width="0.73" stroke-miterlimit="10"/>
<path d="M323.697 69.129V70.0191" stroke="#A0DAD2" stroke-width="0.73" stroke-miterlimit="10"/>
<path d="M324.928 66.781V67.6711" stroke="#A0DAD2" stroke-width="0.73" stroke-miterlimit="10"/>
<path d="M324.547 58.9823V59.8724" stroke="#A0DAD2" stroke-width="0.73" stroke-miterlimit="10"/>
<path d="M321.236 65.2556V66.1457" stroke="#A0DAD2" stroke-width="0.73" stroke-miterlimit="10"/>
<path d="M320.704 57.3209V58.211" stroke="#A0DAD2" stroke-width="0.73" stroke-miterlimit="10"/>
<path d="M320.13 61V61.8901" stroke="#A0DAD2" stroke-width="0.73" stroke-miterlimit="10"/>
<path d="M320.704 52.7026V53.5927" stroke="#A0DAD2" stroke-width="0.73" stroke-miterlimit="10"/>
<path d="M319.677 67.2279V68.118" stroke="#A0DAD2" stroke-width="0.73" stroke-miterlimit="10"/>
<path d="M320.458 70.703V71.5931" stroke="#A0DAD2" stroke-width="0.73" stroke-miterlimit="10"/>
<path d="M323.165 57.0942L322.033 59.4261" stroke="#0B2B52" stroke-width="0.73" stroke-miterlimit="10"/>
<path d="M320.704 59.426L322.033 62.0655" stroke="#0B2B52" stroke-width="0.73" stroke-miterlimit="10"/>
<path d="M325.463 64.4622L322.033 68.6853" stroke="#0B2B52" stroke-width="0.73" stroke-miterlimit="10"/>
<path d="M335.209 59.6624C335.133 59.5215 335.019 59.4037 334.881 59.3216C334.742 59.2394 334.583 59.196 334.421 59.196C334.26 59.196 334.101 59.2394 333.962 59.3216C333.823 59.4037 333.71 59.5215 333.634 59.6624C332.095 62.1659 328.843 68.4067 328.843 76.322C328.843 80.3735 331.058 84.0461 334.421 84.0461C337.785 84.0461 340 80.3735 340 76.322C340 68.397 336.745 62.1659 335.209 59.6624Z" fill="#A0DAD2"/>
<path d="M334.421 63.0371V90.0085" stroke="#0B2B52" stroke-width="0.73" stroke-miterlimit="10"/>
<path d="M331.901 90.0084H336.935" stroke="white" stroke-width="0.73" stroke-miterlimit="10"/>
<path d="M336.659 73.7181V74.6082" stroke="#A0DAD2" stroke-width="0.73" stroke-miterlimit="10"/>
<path d="M330.631 78.8319V79.722" stroke="#A0DAD2" stroke-width="0.73" stroke-miterlimit="10"/>
<path d="M330.631 73.5691V74.4592" stroke="#A0DAD2" stroke-width="0.73" stroke-miterlimit="10"/>
<path d="M336.085 65.6216V66.5116" stroke="#A0DAD2" stroke-width="0.73" stroke-miterlimit="10"/>
<path d="M336.085 79.2788V80.1689" stroke="#A0DAD2" stroke-width="0.73" stroke-miterlimit="10"/>
<path d="M337.316 76.9309V77.821" stroke="#A0DAD2" stroke-width="0.73" stroke-miterlimit="10"/>
<path d="M336.935 69.129V70.0191" stroke="#A0DAD2" stroke-width="0.73" stroke-miterlimit="10"/>
<path d="M333.624 75.4055V76.2956" stroke="#A0DAD2" stroke-width="0.73" stroke-miterlimit="10"/>
<path d="M333.092 67.4708V68.3609" stroke="#A0DAD2" stroke-width="0.73" stroke-miterlimit="10"/>
<path d="M332.518 71.1499V72.04" stroke="#A0DAD2" stroke-width="0.73" stroke-miterlimit="10"/>
<path d="M333.092 62.8492V63.7393" stroke="#A0DAD2" stroke-width="0.73" stroke-miterlimit="10"/>
<path d="M332.065 77.3745V78.2646" stroke="#A0DAD2" stroke-width="0.73" stroke-miterlimit="10"/>
<path d="M332.846 80.8528V81.7428" stroke="#A0DAD2" stroke-width="0.73" stroke-miterlimit="10"/>
<path d="M335.553 67.2408L334.421 69.5759" stroke="#0B2B52" stroke-width="0.73" stroke-miterlimit="10"/>
<path d="M333.092 69.5759L334.421 72.2122" stroke="#0B2B52" stroke-width="0.73" stroke-miterlimit="10"/>
<path d="M337.851 74.6088L334.421 78.8319" stroke="#0B2B52" stroke-width="0.73" stroke-miterlimit="10"/>
</g>
<g clip-path="url(#clip2_71_946)">
<path d="M771.182 50.6965H801.577L814.54 36.0494H784.145L771.182 50.6965Z" fill="#FFDE3F"/>
<path d="M785.501 37.4303L774.619 49.2303V81.8687H796.383V49.2303L785.501 37.4303Z" fill="#E09941"/>
<path d="M825.402 49.2303H796.383V81.8687H825.402V49.2303Z" fill="#FFDE3F"/>
<path d="M827.218 50.6965H796.823L783.855 36.0494H814.25L827.218 50.6965Z" fill="#F7AC2D"/>
<path d="M781.544 53.9603H779.708V58.4795H781.544V53.9603Z" fill="white"/>
<path d="M791.465 53.9603H789.629V58.4795H791.465V53.9603Z" fill="white"/>
<path d="M781.544 62.1602H779.708V66.6793H781.544V62.1602Z" fill="white"/>
<path d="M791.465 62.1602H789.629V66.6793H791.465V62.1602Z" fill="white"/>
<path d="M802.392 53.9603H800.556V58.4795H802.392V53.9603Z" fill="white"/>
<path d="M812.313 53.9603H810.477V58.4795H812.313V53.9603Z" fill="white"/>
<path d="M802.392 62.1602H800.556V66.6793H802.392V62.1602Z" fill="white"/>
<path d="M812.313 62.1602H810.477V66.6793H812.313V62.1602Z" fill="white"/>
<path d="M822.235 53.9603H820.399V58.4795H822.235V53.9603Z" fill="white"/>
<path d="M822.235 62.1602H820.399V66.6793H822.235V62.1602Z" fill="white"/>
<path d="M788.133 81.8686H782.88V73.7492C782.88 73.0501 783.156 72.3795 783.649 71.8852C784.141 71.3908 784.81 71.113 785.506 71.113C786.203 71.113 786.871 71.3908 787.364 71.8852C787.856 72.3795 788.133 73.0501 788.133 73.7492V81.8686Z" fill="#092242"/>
<path d="M804.518 81.8687C804.518 81.8687 804.518 74.0857 809.647 73.9602C814.775 73.8346 815.15 71.0277 819.528 71.1131C823.906 71.1985 825.532 54.6684 829.785 56.2149C834.037 57.7615 835.163 73.8346 835.163 73.8346C835.163 73.8346 839.916 75.2155 841.292 81.8687H804.518Z" fill="#42CCF8"/>
</g>
<g clip-path="url(#clip3_71_946)">
<path d="M131.79 67.6061C131.079 60.6957 128.447 57.7873 128.447 57.7873C128.447 57.7873 128.647 51.0812 126.319 48.1728C126.319 48.1728 125.711 33.9553 119.431 30.0494C113.12 33.9553 112.512 48.1908 112.512 48.1908C110.184 51.0992 110.385 57.8053 110.385 57.8053C110.385 57.8053 107.752 60.7137 107.041 67.6242C106.33 74.5346 114.239 74.6307 119.406 74.6307C124.574 74.6307 132.477 74.5166 131.79 67.6061Z" fill="#FFDE3F"/>
<path d="M119.408 41.5688V82.8271" stroke="#6B3E00" stroke-width="0.73" stroke-miterlimit="10"/>
<path d="M115.049 82.8271H124.168" stroke="white" stroke-width="0.73" stroke-miterlimit="10"/>
<path d="M121.177 44.0205L119.408 48.3771" stroke="#6B3E00" stroke-width="0.73" stroke-miterlimit="10"/>
<path d="M115.858 48.7556L119.408 57.7692" stroke="#6B3E00" stroke-width="0.73" stroke-miterlimit="10"/>
<path d="M126.424 59.4939L119.408 69.1084" stroke="#6B3E00" stroke-width="0.73" stroke-miterlimit="10"/>
<path d="M112.666 59.8724V61.9756" stroke="#C76C1F" stroke-width="0.73" stroke-miterlimit="10"/>
<path d="M115.481 63.2495V65.3527" stroke="#C76C1F" stroke-width="0.73" stroke-miterlimit="10"/>
<path d="M111.377 69.1084V71.2116" stroke="#C76C1F" stroke-width="0.73" stroke-miterlimit="10"/>
<path d="M121.177 59.4939V61.5971" stroke="#C76C1F" stroke-width="0.73" stroke-miterlimit="10"/>
<path d="M124.168 69.1084V71.2116" stroke="#C76C1F" stroke-width="0.73" stroke-miterlimit="10"/>
<path d="M115.858 42.5183V44.6215" stroke="#C76C1F" stroke-width="0.73" stroke-miterlimit="10"/>
<path d="M124.521 54.5364V56.6396" stroke="#C76C1F" stroke-width="0.73" stroke-miterlimit="10"/>
<path d="M122.393 48.3771V50.4802" stroke="#C76C1F" stroke-width="0.73" stroke-miterlimit="10"/>
<path d="M120.296 34.406V36.5092" stroke="#C76C1F" stroke-width="0.73" stroke-miterlimit="10"/>
<path d="M125.889 67.0052V69.1084" stroke="#C76C1F" stroke-width="0.73" stroke-miterlimit="10"/>
<path d="M149.903 67.4559C149.493 65.0332 148.67 62.6967 147.471 60.5454C147.471 60.5454 150.742 56.6395 142.99 48.3771C135.239 56.6395 138.504 60.5454 138.504 60.5454C137.304 62.6967 136.482 65.0332 136.072 67.4559C135.312 71.6622 139.343 73.3868 142.99 73.3868C146.638 73.3868 150.638 71.6622 149.903 67.4559Z" fill="#FFDE3F"/>
<path d="M142.99 54.5364V82.8271" stroke="#6B3E00" stroke-width="0.73" stroke-miterlimit="10"/>
<path d="M138.431 82.8271H147.55" stroke="white" stroke-width="0.73" stroke-miterlimit="10"/>
<path d="M141.446 53.0342V55.1374" stroke="#C76C1F" stroke-width="0.73" stroke-miterlimit="10"/>
<path d="M144.887 57.7693V59.8725" stroke="#C76C1F" stroke-width="0.73" stroke-miterlimit="10"/>
<path d="M145.598 65.7313V67.8345" stroke="#C76C1F" stroke-width="0.73" stroke-miterlimit="10"/>
<path d="M141.039 62.7268V64.83" stroke="#C76C1F" stroke-width="0.73" stroke-miterlimit="10"/>
<path d="M141.039 68.6818V70.7849" stroke="#C76C1F" stroke-width="0.73" stroke-miterlimit="10"/>
<path d="M138.911 65.3528V67.456" stroke="#C76C1F" stroke-width="0.73" stroke-miterlimit="10"/>
</g>
<g clip-path="url(#clip4_71_946)">
<path d="M1021.4 85.3191C1021.4 85.7738 1021.27 86.2184 1021.01 86.5964C1020.76 86.9745 1020.41 87.2692 1019.99 87.4433C1019.57 87.6173 1019.11 87.6628 1018.67 87.5741C1018.23 87.4854 1017.82 87.2664 1017.5 86.9449C1017.18 86.6233 1016.96 86.2136 1016.88 85.7676C1016.79 85.3216 1016.83 84.8594 1017.01 84.4392C1017.18 84.0191 1017.47 83.66 1017.85 83.4074C1018.22 83.1547 1018.66 83.0199 1019.12 83.0199C1019.72 83.0199 1020.3 83.2621 1020.73 83.6933C1021.16 84.1245 1021.4 84.7093 1021.4 85.3191Z" fill="#FFEED2"/>
<path d="M960.13 85.3191C960.13 85.7738 959.996 86.2184 959.745 86.5964C959.494 86.9745 959.137 87.2692 958.72 87.4433C958.303 87.6173 957.844 87.6628 957.401 87.5741C956.958 87.4854 956.551 87.2664 956.232 86.9449C955.912 86.6233 955.695 86.2136 955.607 85.7676C955.519 85.3216 955.564 84.8594 955.737 84.4392C955.91 84.0191 956.202 83.66 956.578 83.4074C956.953 83.1547 957.395 83.0199 957.846 83.0199C958.452 83.0199 959.033 83.2621 959.461 83.6933C959.889 84.1245 960.13 84.7093 960.13 85.3191Z" fill="#FFEED2"/>
<path d="M967.124 55.0465L965.579 66.5348H957.869L954.292 54.7936L967.124 55.0465Z" fill="#96C5BB"/>
<path d="M972.901 100.908C972.901 101.536 966.158 102.049 957.846 102.049C949.535 102.049 942.799 101.536 942.799 100.908C942.799 100.279 949.535 99.7656 957.846 99.7656C966.158 99.7656 972.901 100.256 972.901 100.908Z" fill="#28C0F0" fill-opacity="0.26"/>
<path d="M957.869 99.7732C965.793 99.7732 972.216 93.3053 972.216 85.3267C972.216 77.3481 965.793 70.8801 957.869 70.8801C949.946 70.8801 943.522 77.3481 943.522 85.3267C943.522 93.3053 949.946 99.7732 957.869 99.7732Z" stroke="#039ECF" stroke-width="4" stroke-miterlimit="10"/>
<path d="M957.869 98.9302C965.33 98.9302 971.379 92.8397 971.379 85.3267C971.379 77.8136 965.33 71.7231 957.869 71.7231C950.408 71.7231 944.359 77.8136 944.359 85.3267C944.359 92.8397 950.408 98.9302 957.869 98.9302Z" stroke="#092242" stroke-miterlimit="10"/>
<path d="M984.546 63.4078L991.503 77.7547C991.503 77.7547 988.763 77.8237 989.333 78.3985C989.904 78.9733 994.121 78.8967 994.121 78.8967L990.886 68.0675L984.546 63.4078Z" fill="#FFEED2"/>
<path d="M1034.19 100.908C1034.19 101.536 1027.45 102.049 1019.14 102.049C1010.83 102.049 1004.11 101.536 1004.11 100.908C1004.11 100.279 1010.84 99.7656 1019.15 99.7656C1027.47 99.7656 1034.19 100.256 1034.19 100.908Z" fill="#28C0F0" fill-opacity="0.26"/>
<path d="M1019.14 99.7732C1027.06 99.7732 1033.49 93.3053 1033.49 85.3267C1033.49 77.3481 1027.06 70.8801 1019.14 70.8801C1011.21 70.8801 1004.79 77.3481 1004.79 85.3267C1004.79 93.3053 1011.21 99.7732 1019.14 99.7732Z" stroke="#039ECF" stroke-width="4" stroke-miterlimit="10"/>
<path d="M1019.14 98.9302C1026.6 98.9302 1032.65 92.8397 1032.65 85.3267C1032.65 77.8136 1026.6 71.7231 1019.14 71.7231C1011.68 71.7231 1005.63 77.8136 1005.63 85.3267C1005.63 92.8397 1011.68 98.9302 1019.14 98.9302Z" stroke="#092242" stroke-miterlimit="10"/>
<path d="M993.443 79.2952L995.925 85.3267" stroke="#FFEED2" stroke-width="0.66" stroke-miterlimit="10"/>
<path d="M995.316 78.8966H991.655V79.686H995.316V78.8966Z" fill="#FFEED2"/>
<path d="M999.89 90.998H996.229V91.7874H999.89V90.998Z" fill="#FFEED2"/>
<path d="M996.594 82.3071L1019.14 83.3264V87.2044L996.229 88.377" stroke="#787878" stroke-width="0.5" stroke-miterlimit="10"/>
<path d="M999.41 85.3191C999.412 86.0136 999.209 86.693 998.827 87.2712C998.445 87.8495 997.901 88.3006 997.264 88.5674C996.627 88.8343 995.926 88.9049 995.249 88.7703C994.573 88.6357 993.951 88.302 993.462 87.8115C992.974 87.3209 992.641 86.6954 992.506 86.0143C992.371 85.3332 992.44 84.6271 992.703 83.9853C992.967 83.3434 993.414 82.7948 993.987 82.4087C994.561 82.0227 995.235 81.8167 995.925 81.8167C996.848 81.8166 997.733 82.1854 998.387 82.842C999.04 83.4986 999.408 84.3895 999.41 85.3191Z" fill="#FFEED2"/>
<path d="M1021.4 85.3191C1021.4 85.7738 1021.27 86.2184 1021.01 86.5964C1020.76 86.9745 1020.41 87.2692 1019.99 87.4433C1019.57 87.6173 1019.11 87.6628 1018.67 87.5741C1018.23 87.4854 1017.82 87.2664 1017.5 86.9449C1017.18 86.6233 1016.96 86.2136 1016.88 85.7676C1016.79 85.3216 1016.83 84.8594 1017.01 84.4392C1017.18 84.0191 1017.47 83.66 1017.85 83.4074C1018.22 83.1547 1018.66 83.0199 1019.12 83.0199C1019.72 83.0199 1020.3 83.2621 1020.73 83.6933C1021.16 84.1245 1021.4 84.7093 1021.4 85.3191Z" fill="#FFEED2"/>
<path d="M995.925 85.365L998.398 91.3965" stroke="#FFEED2" stroke-width="0.66" stroke-miterlimit="10"/>
<path d="M957.869 85.3191L961.081 82.4527C963.386 80.4021 964.956 77.6441 965.549 74.6049L969.674 53.506C969.674 53.506 971.128 45.3439 980.535 48.4938" stroke="#4D483F" stroke-width="2" stroke-linecap="round" stroke-linejoin="round"/>
<path d="M967.391 65.1551L996.564 85.3266L1000.83 58.3649" stroke="#4D483F" stroke-width="2" stroke-linecap="round" stroke-linejoin="round"/>
<path d="M968.981 57.0161C968.981 57.0161 978.762 72.6506 998.718 71.7309" stroke="#4D483F" stroke-width="2" stroke-linecap="round" stroke-linejoin="round"/>
<path d="M1000.19 62.3732C1000.19 62.3732 1014.96 71.4473 1019.53 85.365H997.165" stroke="#4D483F" stroke-width="2" stroke-linecap="round" stroke-linejoin="round"/>
<path d="M1000.83 75.4632C1000.83 75.4632 999.593 90.998 998.718 90.998C997.843 90.998 994.22 91.3659 994.456 90.7451C994.692 90.1243 997.348 90.2239 997.637 88.8291C997.926 87.4343 997.356 74.168 997.356 74.168L1000.83 75.4632Z" fill="#FFEED2"/>
<path d="M990.696 25.6015L989.935 28.6671L990.696 28.8587C990.696 28.8587 990.574 30.905 991.015 31.1579C991.643 31.2882 992.291 31.2882 992.918 31.1579L994.311 33.8403L998.642 32.9743L994.288 25.3103L990.696 25.6015Z" fill="#FFEED2"/>
<path d="M1003.73 46.869C1004.87 51.0064 1005.32 55.3055 1005.07 59.5912C1004.59 66.4121 1001.26 76.2756 1001.26 76.2756C1001.26 76.2756 995.255 74.9344 991.64 72.7349C988.024 70.5353 987.073 64.3045 981.745 62.5801C981.745 62.5801 984.508 57.7901 988.595 55.6826C992.682 53.575 995.734 51.6667 996.404 47.3748L1003.73 46.869Z" fill="#28C0F0"/>
<path d="M998.642 31.9243C998.642 31.9243 994.311 32.2615 993.649 34.1239C992.987 35.9862 992.462 36.7603 993.413 39.0595C994.364 41.3586 995.742 44.5238 995.217 45.5278C994.692 46.5318 994.22 47.1526 995.125 47.2982C996.031 47.4438 1002.59 47.2982 1003.97 47.2982C1005.35 47.2982 1004.88 46.118 1003.97 43.0447C1003.06 39.9715 1001.28 32.0469 998.642 31.9243Z" fill="url(#paint0_linear_71_946)"/>
<path d="M1000.83 51.8506H1011.82C1011.82 51.8506 1013.25 60.4725 1009.49 60.4725C1005.73 60.4725 1001.59 59.277 1000.83 51.8506Z" fill="#092242"/>
<path d="M1001.27 52.0959L994.973 38.5383" stroke="#092242" stroke-width="0.5" stroke-miterlimit="10"/>
<path d="M1011.39 52.571L996.594 35.1815" stroke="#092242" stroke-width="0.5" stroke-miterlimit="10"/>
<path d="M996.914 34.9286C998.961 35.9172 993.794 42.5925 991.031 45.8804C990.542 46.4701 989.931 46.9447 989.241 47.2704C988.55 47.5962 987.797 47.7653 987.035 47.7657H976.554C976.554 47.7657 974.781 48.9766 974.461 48.2102C974.397 47.9772 974.386 47.7326 974.428 47.4945C974.47 47.2564 974.565 47.0309 974.705 46.8346C974.845 46.6383 975.028 46.4761 975.238 46.36C975.449 46.244 975.683 46.177 975.923 46.1639C977.125 45.9723 987.415 44.4242 987.415 44.4242C987.415 44.4242 990.886 41.3127 992.287 38.8832C993.687 36.4537 995.331 34.1622 996.914 34.9286Z" fill="#FFEED2"/>
<path d="M989.432 24.9654C989.25 26.1227 991.335 26.5595 993.238 27.1956C995.141 27.8317 994.06 29.0503 994.95 30.7747C995.841 32.4991 997.805 31.6024 999.388 33.779C1000.97 35.9555 1007 45.3362 1010.93 42.5235C1014.87 39.7109 1012.84 35.511 1010.04 34.0012C1007.25 32.4914 1004.78 31.3495 1002.87 28.92C1000.97 26.4906 997.104 23.0494 994.631 23.0494C992.157 23.0494 989.684 23.3023 989.432 24.9654Z" fill="#092242"/>
</g>
<path d="M235.698 13.2062C238.41 8.63249 245.029 8.63249 247.741 13.2062L288 81.1143H195.439L235.698 13.2062Z" fill="#42CCF8"/>
<path d="M195.347 23.3193C198.055 18.7265 204.699 18.7265 207.407 23.3193L241.754 81.5709H161L195.347 23.3193Z" fill="#8EE4FF"/>
<path d="M203.467 16.7009L204.009 17.977" stroke="white" stroke-width="0.73" stroke-miterlimit="10"/>
<path d="M213.386 22.2776L213.928 23.5535" stroke="white" stroke-width="0.73" stroke-miterlimit="10"/>
<path d="M210.123 18.9609L210.665 20.2368" stroke="white" stroke-width="0.73" stroke-miterlimit="10"/>
<path d="M204.872 10.8966L205.413 12.1724" stroke="white" stroke-width="0.73" stroke-miterlimit="10"/>
<g opacity="0.5">
<path d="M214.155 34.082L214.697 35.3581" stroke="white" stroke-width="0.73" stroke-miterlimit="10"/>
<path d="M224.074 39.6588L224.616 40.9345" stroke="white" stroke-width="0.73" stroke-miterlimit="10"/>
<path d="M220.811 36.342L221.353 37.6179" stroke="white" stroke-width="0.73" stroke-miterlimit="10"/>
<path d="M215.56 28.2776L216.101 29.5537" stroke="white" stroke-width="0.73" stroke-miterlimit="10"/>
</g>
<path d="M241.896 7.99597L242.549 9.53256" stroke="white" stroke-width="0.73" stroke-miterlimit="10"/>
<path d="M253.843 14.7124L254.495 16.2491" stroke="white" stroke-width="0.73" stroke-miterlimit="10"/>
<path d="M249.913 10.7178L250.565 12.2546" stroke="white" stroke-width="0.73" stroke-miterlimit="10"/>
<path d="M243.588 1.00488L244.24 2.5416" stroke="white" stroke-width="0.73" stroke-miterlimit="10"/>
<g opacity="0.5">
<path d="M254.769 28.9299L255.422 30.4677" stroke="white" stroke-width="0.73" stroke-miterlimit="10"/>
<path d="M266.715 35.6465L267.368 37.1833" stroke="white" stroke-width="0.73" stroke-miterlimit="10"/>
<path d="M262.786 31.652L263.438 33.1886" stroke="white" stroke-width="0.73" stroke-miterlimit="10"/>
<path d="M256.461 21.9388L257.113 23.4757" stroke="white" stroke-width="0.73" stroke-miterlimit="10"/>
</g>
<path opacity="0.3" d="M225.128 31.3536L218.596 41.8536L242.348 81.1143H252.442L225.128 31.3536Z" fill="#0199CA"/>
<defs>
<linearGradient id="paint0_linear_71_946" x1="992.894" y1="31.9243" x2="992.894" y2="47.3629" gradientUnits="userSpaceOnUse">
<stop stop-color="#14D1F2"/>
<stop offset="1" stop-color="#5CE7FF"/>
</linearGradient>
<clipPath id="clip0_71_946">
<rect width="59" height="67.1289" fill="white" transform="translate(865 32.0496)"/>
</clipPath>
<clipPath id="clip1_71_946">
<rect width="37" height="41.0789" fill="white" transform="translate(303 49.0494)"/>
</clipPath>
<clipPath id="clip2_71_946">
<rect width="78" height="46" fill="white" transform="translate(768 36.0494)"/>
</clipPath>
<clipPath id="clip3_71_946">
<rect width="43" height="53" fill="white" transform="translate(107 30.0494)"/>
</clipPath>
<clipPath id="clip4_71_946">
<rect width="93" height="79" fill="white" transform="translate(942 23.0494)"/>
</clipPath>
</defs>
</svg>
