<svg width="348" height="64" viewBox="0 0 348 64" fill="none" xmlns="http://www.w3.org/2000/svg">
<g filter="url(#filter0_d_37_651)">
<path d="M19.86 47.66C17.484 47.66 15.306 47.066 13.326 45.878C11.39 44.646 9.828 43.04 8.64 41.06C7.496 39.036 6.924 36.814 6.924 34.394V31.358C6.924 31.138 7.034 31.028 7.254 31.028H14.646C14.822 31.028 14.91 31.138 14.91 31.358V34.394C14.91 35.846 15.394 37.1 16.362 38.156C17.33 39.168 18.496 39.674 19.86 39.674C21.224 39.674 22.39 39.146 23.358 38.09C24.326 37.034 24.81 35.802 24.81 34.394C24.81 32.766 23.754 31.358 21.642 30.17C20.938 29.774 19.838 29.158 18.342 28.322C16.846 27.486 15.438 26.694 14.118 25.946C11.698 24.538 9.894 22.778 8.706 20.666C7.562 18.51 6.99 16.09 6.99 13.406C6.99 10.942 7.584 8.742 8.772 6.806C9.96 4.826 11.522 3.264 13.458 2.12C15.438 0.975999 17.572 0.403998 19.86 0.403998C22.192 0.403998 24.326 0.997998 26.262 2.186C28.242 3.33 29.804 4.892 30.948 6.872C32.136 8.808 32.73 10.986 32.73 13.406V18.818C32.73 18.994 32.642 19.082 32.466 19.082H25.074C24.898 19.082 24.81 18.994 24.81 18.818L24.744 13.406C24.744 11.866 24.26 10.612 23.292 9.644C22.324 8.676 21.18 8.192 19.86 8.192C18.496 8.192 17.33 8.72 16.362 9.776C15.394 10.788 14.91 11.998 14.91 13.406C14.91 14.858 15.218 16.068 15.834 17.036C16.45 18.004 17.572 18.928 19.2 19.808C19.42 19.94 19.838 20.182 20.454 20.534C21.114 20.842 21.818 21.216 22.566 21.656C23.314 22.052 23.974 22.404 24.546 22.712C25.162 23.02 25.536 23.218 25.668 23.306C27.868 24.538 29.606 26.056 30.882 27.86C32.158 29.62 32.796 31.798 32.796 34.394C32.796 36.902 32.202 39.168 31.014 41.192C29.87 43.172 28.308 44.756 26.328 45.944C24.392 47.088 22.236 47.66 19.86 47.66ZM45.6638 47C45.4878 47 45.3998 46.89 45.3998 46.67V9.05H36.8198C36.5998 9.05 36.4898 8.94 36.4898 8.72L36.5558 1.328C36.5558 1.152 36.6438 1.064 36.8198 1.064H61.8998C62.1198 1.064 62.2298 1.152 62.2298 1.328V8.72C62.2298 8.94 62.1418 9.05 61.9658 9.05H53.3198L53.3858 46.67C53.3858 46.89 53.2978 47 53.1218 47H45.6638ZM67.8196 47C67.5996 47 67.4896 46.89 67.4896 46.67L67.5556 1.328C67.5556 1.152 67.6436 1.064 67.8196 1.064H75.2116C75.3876 1.064 75.4756 1.152 75.4756 1.328L75.5416 46.67C75.5416 46.89 75.4536 47 75.2776 47H67.8196ZM95.557 47.66C93.181 47.66 91.003 47.066 89.023 45.878C87.087 44.646 85.525 43.04 84.337 41.06C83.149 39.036 82.555 36.814 82.555 34.394L82.621 13.472C82.621 11.052 83.193 8.852 84.337 6.872C85.525 4.892 87.109 3.308 89.089 2.12C91.069 0.931999 93.225 0.337999 95.557 0.337999C97.933 0.337999 100.089 0.931999 102.025 2.12C103.961 3.308 105.501 4.892 106.645 6.872C107.833 8.852 108.427 11.052 108.427 13.472L108.493 34.394C108.493 36.814 107.899 39.036 106.711 41.06C105.567 43.04 104.005 44.646 102.025 45.878C100.089 47.066 97.933 47.66 95.557 47.66ZM95.557 39.674C96.877 39.674 98.021 39.146 98.989 38.09C100.001 36.99 100.507 35.758 100.507 34.394L100.441 13.472C100.441 12.02 99.979 10.788 99.055 9.776C98.131 8.764 96.965 8.258 95.557 8.258C94.193 8.258 93.027 8.764 92.059 9.776C91.091 10.744 90.607 11.976 90.607 13.472V34.394C90.607 35.846 91.091 37.1 92.059 38.156C93.027 39.168 94.193 39.674 95.557 39.674ZM116.105 47C115.753 47 115.577 46.846 115.577 46.538L115.511 1.592C115.511 1.24 115.687 1.064 116.039 1.064H121.979L133.133 27.068L132.803 1.592C132.803 1.24 133.001 1.064 133.397 1.064H139.931C140.195 1.064 140.327 1.24 140.327 1.592L140.393 46.604C140.393 46.868 140.283 47 140.063 47H134.255L122.837 22.712L123.299 46.472C123.299 46.824 123.101 47 122.705 47H116.105ZM171.143 47.66C168.767 47.66 166.589 47.066 164.609 45.878C162.673 44.646 161.111 43.04 159.923 41.06C158.779 39.036 158.207 36.814 158.207 34.394V31.358C158.207 31.138 158.317 31.028 158.537 31.028H165.929C166.105 31.028 166.193 31.138 166.193 31.358V34.394C166.193 35.846 166.677 37.1 167.645 38.156C168.613 39.168 169.779 39.674 171.143 39.674C172.507 39.674 173.673 39.146 174.641 38.09C175.609 37.034 176.093 35.802 176.093 34.394C176.093 32.766 175.037 31.358 172.925 30.17C172.221 29.774 171.121 29.158 169.625 28.322C168.129 27.486 166.721 26.694 165.401 25.946C162.981 24.538 161.177 22.778 159.989 20.666C158.845 18.51 158.273 16.09 158.273 13.406C158.273 10.942 158.867 8.742 160.055 6.806C161.243 4.826 162.805 3.264 164.741 2.12C166.721 0.975999 168.855 0.403998 171.143 0.403998C173.475 0.403998 175.609 0.997998 177.545 2.186C179.525 3.33 181.087 4.892 182.231 6.872C183.419 8.808 184.013 10.986 184.013 13.406V18.818C184.013 18.994 183.925 19.082 183.749 19.082H176.357C176.181 19.082 176.093 18.994 176.093 18.818L176.027 13.406C176.027 11.866 175.543 10.612 174.575 9.644C173.607 8.676 172.463 8.192 171.143 8.192C169.779 8.192 168.613 8.72 167.645 9.776C166.677 10.788 166.193 11.998 166.193 13.406C166.193 14.858 166.501 16.068 167.117 17.036C167.733 18.004 168.855 18.928 170.483 19.808C170.703 19.94 171.121 20.182 171.737 20.534C172.397 20.842 173.101 21.216 173.849 21.656C174.597 22.052 175.257 22.404 175.829 22.712C176.445 23.02 176.819 23.218 176.951 23.306C179.151 24.538 180.889 26.056 182.165 27.86C183.441 29.62 184.079 31.798 184.079 34.394C184.079 36.902 183.485 39.168 182.297 41.192C181.153 43.172 179.591 44.756 177.611 45.944C175.675 47.088 173.519 47.66 171.143 47.66ZM190.933 47C190.757 47 190.669 46.89 190.669 46.67L190.735 1.328C190.735 1.152 190.823 1.064 190.999 1.064H212.185C212.361 1.064 212.449 1.174 212.449 1.394V8.786C212.449 8.962 212.361 9.05 212.185 9.05H198.655V19.346H212.185C212.361 19.346 212.449 19.434 212.449 19.61L212.515 27.068C212.515 27.244 212.427 27.332 212.251 27.332H198.655V38.882H212.251C212.427 38.882 212.515 38.992 212.515 39.212V46.736C212.515 46.912 212.427 47 212.251 47H190.933ZM217.496 46.67L225.68 1.328C225.724 1.152 225.834 1.064 226.01 1.064H235.58C235.756 1.064 235.866 1.152 235.91 1.328L243.764 46.67C243.808 46.89 243.72 47 243.5 47H236.174C235.998 47 235.888 46.89 235.844 46.67L235.118 41.852H226.142L225.416 46.67C225.372 46.89 225.262 47 225.086 47H217.76C217.584 47 217.496 46.89 217.496 46.67ZM227.462 34.79H233.798L231.092 16.244L230.696 13.802L230.432 16.244L227.462 34.79ZM250.17 47C249.994 47 249.906 46.89 249.906 46.67L250.038 1.328C250.038 1.152 250.126 1.064 250.302 1.064H263.634C266.01 1.064 268.188 1.658 270.168 2.846C272.192 3.99 273.798 5.552 274.986 7.532C276.174 9.468 276.768 11.668 276.768 14.132C276.768 15.76 276.526 17.234 276.042 18.554C275.558 19.83 274.986 20.93 274.326 21.854C273.666 22.734 273.072 23.394 272.544 23.834C274.92 26.474 276.108 29.576 276.108 33.14L276.174 46.67C276.174 46.89 276.064 47 275.844 47H268.386C268.21 47 268.122 46.934 268.122 46.802V33.14C268.122 31.556 267.55 30.192 266.406 29.048C265.306 27.86 263.942 27.266 262.314 27.266H257.958L257.892 46.67C257.892 46.89 257.804 47 257.628 47H250.17ZM257.958 19.346H263.634C264.998 19.346 266.208 18.84 267.264 17.828C268.32 16.816 268.848 15.584 268.848 14.132C268.848 12.724 268.32 11.514 267.264 10.502C266.252 9.49 265.042 8.984 263.634 8.984H257.958V19.346ZM295.567 47.66C293.147 47.66 290.947 47.066 288.967 45.878C287.031 44.646 285.491 43.018 284.347 40.994C283.203 38.97 282.631 36.704 282.631 34.196L282.697 13.604C282.697 11.184 283.247 8.984 284.347 7.004C285.491 4.98 287.031 3.374 288.967 2.186C290.947 0.953999 293.147 0.337999 295.567 0.337999C297.987 0.337999 300.165 0.931999 302.101 2.12C304.037 3.308 305.577 4.914 306.721 6.938C307.865 8.918 308.437 11.14 308.437 13.604V16.64C308.437 16.816 308.349 16.904 308.173 16.904H300.781C300.605 16.904 300.517 16.816 300.517 16.64V13.604C300.517 12.152 300.033 10.898 299.065 9.842C298.141 8.786 296.975 8.258 295.567 8.258C293.983 8.258 292.773 8.808 291.937 9.908C291.101 10.964 290.683 12.196 290.683 13.604V34.196C290.683 35.824 291.145 37.144 292.069 38.156C293.037 39.168 294.203 39.674 295.567 39.674C296.975 39.674 298.141 39.124 299.065 38.024C300.033 36.88 300.517 35.604 300.517 34.196V31.16C300.517 30.984 300.605 30.896 300.781 30.896H308.239C308.415 30.896 308.503 30.984 308.503 31.16V34.196C308.503 36.704 307.909 38.97 306.721 40.994C305.577 43.018 304.037 44.646 302.101 45.878C300.165 47.066 297.987 47.66 295.567 47.66ZM315.593 47C315.417 47 315.329 46.89 315.329 46.67L315.395 1.328C315.395 1.152 315.505 1.064 315.725 1.064H323.051C323.271 1.064 323.381 1.152 323.381 1.328L323.315 19.28H333.215V1.328C333.215 1.152 333.303 1.064 333.479 1.064H340.805C341.025 1.064 341.135 1.152 341.135 1.328L341.267 46.67C341.267 46.89 341.157 47 340.937 47H333.545C333.325 47 333.215 46.89 333.215 46.67V27.266H323.315V46.67C323.315 46.89 323.227 47 323.051 47H315.593Z" fill="white"/>
</g>
<defs>
<filter id="filter0_d_37_651" x="0.92395" y="0.338013" width="346.344" height="63.322" filterUnits="userSpaceOnUse" color-interpolation-filters="sRGB">
<feFlood flood-opacity="0" result="BackgroundImageFix"/>
<feColorMatrix in="SourceAlpha" type="matrix" values="0 0 0 0 0 0 0 0 0 0 0 0 0 0 0 0 0 0 127 0" result="hardAlpha"/>
<feOffset dy="10"/>
<feGaussianBlur stdDeviation="3"/>
<feComposite in2="hardAlpha" operator="out"/>
<feColorMatrix type="matrix" values="0 0 0 0 0 0 0 0 0 0 0 0 0 0 0 0 0 0 0.25 0"/>
<feBlend mode="normal" in2="BackgroundImageFix" result="effect1_dropShadow_37_651"/>
<feBlend mode="normal" in="SourceGraphic" in2="effect1_dropShadow_37_651" result="shape"/>
</filter>
</defs>
</svg>
