<svg width="182" height="26" viewBox="0 0 182 26" fill="none" xmlns="http://www.w3.org/2000/svg">
<path d="M5.51696 24.7831C5.42432 24.7831 5.37799 24.7265 5.37799 24.6134V5.2679H0.861575C0.745769 5.2679 0.687866 5.21134 0.687866 5.09821L0.722608 1.29699C0.722608 1.20649 0.76893 1.16124 0.861575 1.16124H14.0634C14.1792 1.16124 14.2371 1.20649 14.2371 1.29699V5.09821C14.2371 5.21134 14.1908 5.2679 14.0982 5.2679H9.547L9.58174 24.6134C9.58174 24.7265 9.53542 24.7831 9.44277 24.7831H5.51696Z" fill="white"/>
<path d="M14.1699 24.6134L18.4778 1.29699C18.501 1.20649 18.5589 1.16124 18.6515 1.16124H23.6891C23.7817 1.16124 23.8396 1.20649 23.8628 1.29699L27.997 24.6134C28.0202 24.7265 27.9739 24.7831 27.8581 24.7831H24.0017C23.9091 24.7831 23.8512 24.7265 23.828 24.6134L23.4459 22.1358H18.721L18.3389 24.6134C18.3157 24.7265 18.2578 24.7831 18.1651 24.7831H14.3088C14.2162 24.7831 14.1699 24.7265 14.1699 24.6134ZM19.4158 18.5043H22.751L21.3266 8.9673L21.1182 7.71154L20.9792 8.9673L19.4158 18.5043Z" fill="white"/>
<path d="M31.4455 24.7831C31.3297 24.7831 31.2718 24.7265 31.2718 24.6134L31.3065 1.29699C31.3065 1.20649 31.3528 1.16124 31.4455 1.16124H35.3365C35.4292 1.16124 35.4755 1.20649 35.4755 1.29699L35.5102 24.6134C35.5102 24.7265 35.4639 24.7831 35.3713 24.7831H31.4455Z" fill="white"/>
<path d="M42.755 24.7831C42.6624 24.7831 42.6045 24.7265 42.5813 24.6134L38.4818 1.29699C38.4586 1.20649 38.4934 1.16124 38.586 1.16124H42.4771C42.5697 1.16124 42.6276 1.20649 42.6508 1.29699L44.8742 16.6376L47.1672 1.29699C47.1904 1.20649 47.2598 1.16124 47.3757 1.16124H50.5024C50.595 1.16124 50.653 1.20649 50.6761 1.29699L52.9343 16.6376L55.1925 1.29699C55.2157 1.20649 55.2736 1.16124 55.3662 1.16124H59.2226C59.3384 1.16124 59.3847 1.20649 59.3615 1.29699L55.2273 24.6134C55.2041 24.6586 55.1694 24.7039 55.123 24.7491C55.0767 24.7717 55.0536 24.7831 55.0536 24.7831H50.8498C50.7803 24.7831 50.7224 24.7265 50.6761 24.6134L48.9043 12.4291L47.1325 24.6134C47.1093 24.7265 47.0514 24.7831 46.9588 24.7831H42.755Z" fill="white"/>
<path d="M59.7606 24.6134L64.0685 1.29699C64.0917 1.20649 64.1496 1.16124 64.2422 1.16124H69.2798C69.3724 1.16124 69.4303 1.20649 69.4535 1.29699L73.5877 24.6134C73.6109 24.7265 73.5646 24.7831 73.4488 24.7831H69.5924C69.4998 24.7831 69.4419 24.7265 69.4187 24.6134L69.0366 22.1358H64.3117L63.9296 24.6134C63.9064 24.7265 63.8485 24.7831 63.7559 24.7831H59.8995C59.8069 24.7831 59.7606 24.7265 59.7606 24.6134ZM65.0066 18.5043H68.3418L66.9173 8.9673L66.7089 7.71154L66.5699 8.9673L65.0066 18.5043Z" fill="white"/>
<path d="M77.0733 24.7831C76.8881 24.7831 76.7954 24.7039 76.7954 24.5455L76.7607 1.43275C76.7607 1.25174 76.8533 1.16124 77.0386 1.16124H80.1654L86.0367 14.5334L85.863 1.43275C85.863 1.25174 85.9672 1.16124 86.1757 1.16124H89.6151C89.7541 1.16124 89.8235 1.25174 89.8235 1.43275L89.8583 24.5794C89.8583 24.7152 89.8004 24.7831 89.6846 24.7831H86.6273L80.617 12.2934L80.8602 24.5115C80.8602 24.6926 80.756 24.7831 80.5475 24.7831H77.0733Z" fill="white"/>
<path d="M100.157 24.7831C100.065 24.7831 100.018 24.7265 100.018 24.6134L100.088 1.29699C100.088 1.20649 100.134 1.16124 100.227 1.16124H107.245C108.495 1.16124 109.642 1.46669 110.684 2.0776C111.75 2.66588 112.595 3.46911 113.22 4.4873C113.846 5.48285 114.158 6.61417 114.158 7.88124C114.158 8.71841 114.031 9.47639 113.776 10.1552C113.521 10.8113 113.22 11.377 112.873 11.8521C112.525 12.3047 112.213 12.6441 111.935 12.8703C113.186 14.2279 113.811 15.8231 113.811 17.6558L113.846 24.6134C113.846 24.7265 113.788 24.7831 113.672 24.7831H109.746C109.653 24.7831 109.607 24.7491 109.607 24.6812V17.6558C109.607 16.8412 109.306 16.1398 108.704 15.5515C108.125 14.9406 107.407 14.6352 106.55 14.6352H104.257L104.222 24.6134C104.222 24.7265 104.176 24.7831 104.083 24.7831H100.157ZM104.257 10.5624H107.245C107.963 10.5624 108.6 10.3022 109.155 9.78184C109.711 9.26144 109.989 8.6279 109.989 7.88124C109.989 7.1572 109.711 6.53497 109.155 6.01457C108.623 5.49416 107.986 5.23396 107.245 5.23396H104.257V10.5624Z" fill="white"/>
<path d="M117.945 24.7831C117.829 24.7831 117.771 24.7265 117.771 24.6134L117.806 1.29699C117.806 1.20649 117.852 1.16124 117.945 1.16124H121.836C121.929 1.16124 121.975 1.20649 121.975 1.29699L122.01 24.6134C122.01 24.7265 121.963 24.7831 121.871 24.7831H117.945Z" fill="white"/>
<path d="M126.232 24.7831C126.116 24.7831 126.058 24.7265 126.058 24.6134L126.128 1.29699C126.128 1.20649 126.174 1.16124 126.267 1.16124L132.763 1.1273C134.037 1.10467 135.195 1.39881 136.238 2.00972C137.303 2.62063 138.148 3.44649 138.774 4.4873C139.399 5.50548 139.712 6.63679 139.712 7.88124V17.6218C139.712 18.9342 139.387 20.1334 138.739 21.2194C138.09 22.2829 137.222 23.1313 136.133 23.7649C135.045 24.3984 133.817 24.7265 132.451 24.7491L126.232 24.7831ZM130.297 20.6085H132.451C133.308 20.6085 134.026 20.3144 134.605 19.7261C135.207 19.1378 135.508 18.4364 135.508 17.6218V7.8473C135.508 7.12326 135.23 6.50103 134.674 5.98063C134.141 5.4376 133.505 5.1774 132.763 5.20002L130.331 5.23396L130.297 20.6085Z" fill="white"/>
<path d="M143.611 24.7831C143.496 24.7831 143.438 24.7265 143.438 24.6134L143.473 1.29699C143.473 1.20649 143.519 1.16124 143.611 1.16124H147.503C147.595 1.16124 147.641 1.20649 147.641 1.29699L147.676 24.6134C147.676 24.7265 147.63 24.7831 147.537 24.7831H143.611Z" fill="white"/>
<path d="M152.037 24.7831C151.852 24.7831 151.76 24.7039 151.76 24.5455L151.725 1.43275C151.725 1.25174 151.817 1.16124 152.003 1.16124H155.129L161.001 14.5334L160.827 1.43275C160.827 1.25174 160.931 1.16124 161.14 1.16124H164.579C164.718 1.16124 164.788 1.25174 164.788 1.43275L164.822 24.5794C164.822 24.7152 164.764 24.7831 164.649 24.7831H161.591L155.581 12.2934L155.824 24.5115C155.824 24.6926 155.72 24.7831 155.512 24.7831H152.037Z" fill="white"/>
<path d="M175.191 25.1224C173.94 25.1224 172.805 24.817 171.786 24.2061C170.767 23.5952 169.945 22.7806 169.319 21.7624C168.717 20.7216 168.416 19.5677 168.416 18.3006V7.54184C168.416 6.32002 168.717 5.20002 169.319 4.18184C169.945 3.14103 170.767 2.31518 171.786 1.70427C172.828 1.09336 173.963 0.787903 175.191 0.787903C176.465 0.787903 177.611 1.09336 178.63 1.70427C179.672 2.29255 180.495 3.09578 181.097 4.11396C181.699 5.13215 182 6.27477 182 7.54184V9.10306C182 9.19356 181.942 9.23881 181.826 9.23881H177.935C177.843 9.23881 177.796 9.19356 177.796 9.10306V7.81336C177.796 6.95356 177.542 6.24083 177.032 5.67518C176.546 5.10952 175.932 4.82669 175.191 4.82669C174.519 4.82669 173.917 5.09821 173.384 5.64124C172.875 6.18427 172.62 6.8178 172.62 7.54184V18.3006C172.62 19.0473 172.875 19.6921 173.384 20.2352C173.894 20.7556 174.496 21.0158 175.191 21.0158C175.932 21.0158 176.546 20.7556 177.032 20.2352C177.542 19.7148 177.796 19.0699 177.796 18.3006V16.6376H175.364C175.249 16.6376 175.191 16.581 175.191 16.4679V12.6667C175.191 12.5536 175.249 12.497 175.364 12.497H181.861C181.954 12.497 182 12.5536 182 12.6667V18.3006C182 19.5677 181.687 20.7216 181.062 21.7624C180.46 22.7806 179.649 23.5952 178.63 24.2061C177.611 24.817 176.465 25.1224 175.191 25.1224Z" fill="white"/>
</svg>
