<svg width="335" height="64" viewBox="0 0 335 64" fill="none" xmlns="http://www.w3.org/2000/svg">
<g filter="url(#filter0_d_46_996)">
<path d="M6.904 47C6.728 47 6.64 46.89 6.64 46.67L6.772 1.328C6.772 1.152 6.86 1.064 7.036 1.064H20.368C22.744 1.064 24.922 1.658 26.902 2.846C28.926 3.99 30.532 5.552 31.72 7.532C32.908 9.468 33.502 11.668 33.502 14.132C33.502 15.76 33.26 17.234 32.776 18.554C32.292 19.83 31.72 20.93 31.06 21.854C30.4 22.734 29.806 23.394 29.278 23.834C31.654 26.474 32.842 29.576 32.842 33.14L32.908 46.67C32.908 46.89 32.798 47 32.578 47H25.12C24.944 47 24.856 46.934 24.856 46.802V33.14C24.856 31.556 24.284 30.192 23.14 29.048C22.04 27.86 20.676 27.266 19.048 27.266H14.692L14.626 46.67C14.626 46.89 14.538 47 14.362 47H6.904ZM14.692 19.346H20.368C21.732 19.346 22.942 18.84 23.998 17.828C25.054 16.816 25.582 15.584 25.582 14.132C25.582 12.724 25.054 11.514 23.998 10.502C22.986 9.49 21.776 8.984 20.368 8.984H14.692V19.346ZM52.3676 47.66C49.9916 47.66 47.8136 47.066 45.8336 45.878C43.8976 44.646 42.3356 43.04 41.1476 41.06C39.9596 39.036 39.3656 36.814 39.3656 34.394L39.4316 13.472C39.4316 11.052 40.0036 8.852 41.1476 6.872C42.3356 4.892 43.9196 3.308 45.8996 2.12C47.8796 0.931999 50.0356 0.337999 52.3676 0.337999C54.7436 0.337999 56.8996 0.931999 58.8356 2.12C60.7716 3.308 62.3116 4.892 63.4556 6.872C64.6436 8.852 65.2376 11.052 65.2376 13.472L65.3036 34.394C65.3036 36.814 64.7096 39.036 63.5216 41.06C62.3776 43.04 60.8156 44.646 58.8356 45.878C56.8996 47.066 54.7436 47.66 52.3676 47.66ZM52.3676 39.674C53.6876 39.674 54.8316 39.146 55.7996 38.09C56.8116 36.99 57.3176 35.758 57.3176 34.394L57.2516 13.472C57.2516 12.02 56.7896 10.788 55.8656 9.776C54.9416 8.764 53.7756 8.258 52.3676 8.258C51.0036 8.258 49.8376 8.764 48.8696 9.776C47.9016 10.744 47.4176 11.976 47.4176 13.472V34.394C47.4176 35.846 47.9016 37.1 48.8696 38.156C49.8376 39.168 51.0036 39.674 52.3676 39.674ZM69.8843 46.67L78.0683 1.328C78.1123 1.152 78.2223 1.064 78.3983 1.064H87.9683C88.1443 1.064 88.2543 1.152 88.2983 1.328L96.1523 46.67C96.1963 46.89 96.1083 47 95.8883 47H88.5623C88.3863 47 88.2763 46.89 88.2323 46.67L87.5063 41.852H78.5303L77.8043 46.67C77.7603 46.89 77.6503 47 77.4743 47H70.1483C69.9723 47 69.8843 46.89 69.8843 46.67ZM79.8503 34.79H86.1863L83.4803 16.244L83.0843 13.802L82.8203 16.244L79.8503 34.79ZM102.624 47C102.404 47 102.294 46.89 102.294 46.67L102.426 1.328C102.426 1.152 102.514 1.064 102.69 1.064L115.032 0.997998C117.452 0.953999 119.652 1.526 121.632 2.714C123.656 3.902 125.262 5.508 126.45 7.532C127.638 9.512 128.232 11.712 128.232 14.132V33.074C128.232 35.626 127.616 37.958 126.384 40.07C125.152 42.138 123.502 43.788 121.434 45.02C119.366 46.252 117.034 46.89 114.438 46.934L102.624 47ZM110.346 38.882H114.438C116.066 38.882 117.43 38.31 118.53 37.166C119.674 36.022 120.246 34.658 120.246 33.074V14.066C120.246 12.658 119.718 11.448 118.662 10.436C117.65 9.38 116.44 8.874 115.032 8.918L110.412 8.984L110.346 38.882ZM158.442 47.66C156.066 47.66 153.888 47.066 151.908 45.878C149.972 44.646 148.41 43.04 147.222 41.06C146.078 39.036 145.506 36.814 145.506 34.394V31.358C145.506 31.138 145.616 31.028 145.836 31.028H153.228C153.404 31.028 153.492 31.138 153.492 31.358V34.394C153.492 35.846 153.976 37.1 154.944 38.156C155.912 39.168 157.078 39.674 158.442 39.674C159.806 39.674 160.972 39.146 161.94 38.09C162.908 37.034 163.392 35.802 163.392 34.394C163.392 32.766 162.336 31.358 160.224 30.17C159.52 29.774 158.42 29.158 156.924 28.322C155.428 27.486 154.02 26.694 152.7 25.946C150.28 24.538 148.476 22.778 147.288 20.666C146.144 18.51 145.572 16.09 145.572 13.406C145.572 10.942 146.166 8.742 147.354 6.806C148.542 4.826 150.104 3.264 152.04 2.12C154.02 0.975999 156.154 0.403998 158.442 0.403998C160.774 0.403998 162.908 0.997998 164.844 2.186C166.824 3.33 168.386 4.892 169.53 6.872C170.718 8.808 171.312 10.986 171.312 13.406V18.818C171.312 18.994 171.224 19.082 171.048 19.082H163.656C163.48 19.082 163.392 18.994 163.392 18.818L163.326 13.406C163.326 11.866 162.842 10.612 161.874 9.644C160.906 8.676 159.762 8.192 158.442 8.192C157.078 8.192 155.912 8.72 154.944 9.776C153.976 10.788 153.492 11.998 153.492 13.406C153.492 14.858 153.8 16.068 154.416 17.036C155.032 18.004 156.154 18.928 157.782 19.808C158.002 19.94 158.42 20.182 159.036 20.534C159.696 20.842 160.4 21.216 161.148 21.656C161.896 22.052 162.556 22.404 163.128 22.712C163.744 23.02 164.118 23.218 164.25 23.306C166.45 24.538 168.188 26.056 169.464 27.86C170.74 29.62 171.378 31.798 171.378 34.394C171.378 36.902 170.784 39.168 169.596 41.192C168.452 43.172 166.89 44.756 164.91 45.944C162.974 47.088 160.818 47.66 158.442 47.66ZM178.232 47C178.056 47 177.968 46.89 177.968 46.67L178.034 1.328C178.034 1.152 178.122 1.064 178.298 1.064H199.484C199.66 1.064 199.748 1.174 199.748 1.394V8.786C199.748 8.962 199.66 9.05 199.484 9.05H185.954V19.346H199.484C199.66 19.346 199.748 19.434 199.748 19.61L199.814 27.068C199.814 27.244 199.726 27.332 199.55 27.332H185.954V38.882H199.55C199.726 38.882 199.814 38.992 199.814 39.212V46.736C199.814 46.912 199.726 47 199.55 47H178.232ZM204.794 46.67L212.978 1.328C213.022 1.152 213.132 1.064 213.308 1.064H222.878C223.054 1.064 223.164 1.152 223.208 1.328L231.062 46.67C231.106 46.89 231.018 47 230.798 47H223.472C223.296 47 223.186 46.89 223.142 46.67L222.416 41.852H213.44L212.714 46.67C212.67 46.89 212.56 47 212.384 47H205.058C204.882 47 204.794 46.89 204.794 46.67ZM214.76 34.79H221.096L218.39 16.244L217.994 13.802L217.73 16.244L214.76 34.79ZM237.468 47C237.292 47 237.204 46.89 237.204 46.67L237.336 1.328C237.336 1.152 237.424 1.064 237.6 1.064H250.932C253.308 1.064 255.486 1.658 257.466 2.846C259.49 3.99 261.096 5.552 262.284 7.532C263.472 9.468 264.066 11.668 264.066 14.132C264.066 15.76 263.824 17.234 263.34 18.554C262.856 19.83 262.284 20.93 261.624 21.854C260.964 22.734 260.37 23.394 259.842 23.834C262.218 26.474 263.406 29.576 263.406 33.14L263.472 46.67C263.472 46.89 263.362 47 263.142 47H255.684C255.508 47 255.42 46.934 255.42 46.802V33.14C255.42 31.556 254.848 30.192 253.704 29.048C252.604 27.86 251.24 27.266 249.612 27.266H245.256L245.19 46.67C245.19 46.89 245.102 47 244.926 47H237.468ZM245.256 19.346H250.932C252.296 19.346 253.506 18.84 254.562 17.828C255.618 16.816 256.146 15.584 256.146 14.132C256.146 12.724 255.618 11.514 254.562 10.502C253.55 9.49 252.34 8.984 250.932 8.984H245.256V19.346ZM282.866 47.66C280.446 47.66 278.246 47.066 276.266 45.878C274.33 44.646 272.79 43.018 271.646 40.994C270.502 38.97 269.93 36.704 269.93 34.196L269.996 13.604C269.996 11.184 270.546 8.984 271.646 7.004C272.79 4.98 274.33 3.374 276.266 2.186C278.246 0.953999 280.446 0.337999 282.866 0.337999C285.286 0.337999 287.464 0.931999 289.4 2.12C291.336 3.308 292.876 4.914 294.02 6.938C295.164 8.918 295.736 11.14 295.736 13.604V16.64C295.736 16.816 295.648 16.904 295.472 16.904H288.08C287.904 16.904 287.816 16.816 287.816 16.64V13.604C287.816 12.152 287.332 10.898 286.364 9.842C285.44 8.786 284.274 8.258 282.866 8.258C281.282 8.258 280.072 8.808 279.236 9.908C278.4 10.964 277.982 12.196 277.982 13.604V34.196C277.982 35.824 278.444 37.144 279.368 38.156C280.336 39.168 281.502 39.674 282.866 39.674C284.274 39.674 285.44 39.124 286.364 38.024C287.332 36.88 287.816 35.604 287.816 34.196V31.16C287.816 30.984 287.904 30.896 288.08 30.896H295.538C295.714 30.896 295.802 30.984 295.802 31.16V34.196C295.802 36.704 295.208 38.97 294.02 40.994C292.876 43.018 291.336 44.646 289.4 45.878C287.464 47.066 285.286 47.66 282.866 47.66ZM302.892 47C302.716 47 302.628 46.89 302.628 46.67L302.694 1.328C302.694 1.152 302.804 1.064 303.024 1.064H310.35C310.57 1.064 310.68 1.152 310.68 1.328L310.614 19.28H320.514V1.328C320.514 1.152 320.602 1.064 320.778 1.064H328.104C328.324 1.064 328.434 1.152 328.434 1.328L328.566 46.67C328.566 46.89 328.456 47 328.236 47H320.844C320.624 47 320.514 46.89 320.514 46.67V27.266H310.614V46.67C310.614 46.89 310.526 47 310.35 47H302.892Z" fill="white"/>
</g>
<defs>
<filter id="filter0_d_46_996" x="0.639893" y="0.338013" width="333.926" height="63.322" filterUnits="userSpaceOnUse" color-interpolation-filters="sRGB">
<feFlood flood-opacity="0" result="BackgroundImageFix"/>
<feColorMatrix in="SourceAlpha" type="matrix" values="0 0 0 0 0 0 0 0 0 0 0 0 0 0 0 0 0 0 127 0" result="hardAlpha"/>
<feOffset dy="10"/>
<feGaussianBlur stdDeviation="3"/>
<feComposite in2="hardAlpha" operator="out"/>
<feColorMatrix type="matrix" values="0 0 0 0 0 0 0 0 0 0 0 0 0 0 0 0 0 0 0.25 0"/>
<feBlend mode="normal" in2="BackgroundImageFix" result="effect1_dropShadow_46_996"/>
<feBlend mode="normal" in="SourceGraphic" in2="effect1_dropShadow_46_996" result="shape"/>
</filter>
</defs>
</svg>
