<svg width="35" height="35" viewBox="0 0 35 35" fill="none" xmlns="http://www.w3.org/2000/svg">
<circle cx="17.4272" cy="17.4271" r="17.041" transform="rotate(-24.2618 17.4272 17.4271)" fill="#28C0F0"/>
<path fill-rule="evenodd" clip-rule="evenodd" d="M17.6287 25.1181C18.5967 25.1181 24.4048 21.3734 24.4048 16.6926C24.4048 12.0118 21.371 10.1395 17.6287 10.1395C13.8864 10.1395 10.8527 12.4799 10.8527 16.6926C10.8527 21.3734 16.6607 25.1181 17.6287 25.1181ZM17.6287 19.372C19.2326 19.372 20.5327 18.1146 20.5327 16.5635C20.5327 15.0124 19.2326 13.755 17.6287 13.755C16.0249 13.755 14.7247 15.0124 14.7247 16.5635C14.7247 18.1146 16.0249 19.372 17.6287 19.372Z" fill="white"/>
</svg>
