<svg width="54" height="54" viewBox="0 0 54 54" fill="none" xmlns="http://www.w3.org/2000/svg">
<path d="M25.6275 23.3775L16.875 32.1233L8.1225 23.3775C6.3924 21.6466 5.21438 19.4416 4.73736 17.0412C4.26033 14.6409 4.50574 12.153 5.44254 9.89207C6.37935 7.63117 7.96549 5.69881 10.0004 4.33928C12.0354 2.97975 14.4277 2.25412 16.875 2.25412C19.3223 2.25412 21.7146 2.97975 23.7496 4.33928C25.7845 5.69881 27.3706 7.63117 28.3075 9.89207C29.2443 12.153 29.4897 14.6409 29.0126 17.0412C28.5356 19.4416 27.3576 21.6466 25.6275 23.3775ZM16.875 19.125C18.0685 19.125 19.2131 18.6509 20.057 17.807C20.9009 16.9631 21.375 15.8185 21.375 14.625C21.375 13.4315 20.9009 12.2869 20.057 11.443C19.2131 10.5991 18.0685 10.125 16.875 10.125C15.6815 10.125 14.5369 10.5991 13.693 11.443C12.8491 12.2869 12.375 13.4315 12.375 14.625C12.375 15.8185 12.8491 16.9631 13.693 17.807C14.5369 18.6509 15.6815 19.125 16.875 19.125ZM45.8775 43.6275L37.125 52.3755L28.3725 43.6253C26.6424 41.8944 25.4644 39.6893 24.9874 37.289C24.5103 34.8886 24.7557 32.4007 25.6925 30.1398C26.6294 27.8789 28.2155 25.9466 30.2504 24.587C32.2854 23.2275 34.6777 22.5019 37.125 22.5019C39.5723 22.5019 41.9646 23.2275 43.9996 24.587C46.0345 25.9466 47.6206 27.8789 48.5574 30.1398C49.4943 32.4007 49.7397 34.8886 49.2626 37.289C48.7856 39.6893 47.6076 41.8966 45.8775 43.6275ZM37.125 39.375C38.3185 39.375 39.4631 38.9009 40.307 38.057C41.1509 37.2131 41.625 36.0685 41.625 34.875C41.625 33.6815 41.1509 32.5369 40.307 31.693C39.4631 30.8491 38.3185 30.375 37.125 30.375C35.9315 30.375 34.7869 30.8491 33.943 31.693C33.0991 32.5369 32.625 33.6815 32.625 34.875C32.625 36.0685 33.0991 37.2131 33.943 38.057C34.7869 38.9009 35.9315 39.375 37.125 39.375Z" fill="#28C0F0"/>
</svg>
