<svg width="319" height="75" viewBox="0 0 319 75" fill="none" xmlns="http://www.w3.org/2000/svg">
<path d="M0 41.0698H319V74.8032H0V41.0698Z" fill="#43CCF8"/>
<rect y="41.0698" width="319" height="13.9333" fill="#0BB9F0"/>
<g clip-path="url(#clip0_71_1169)">
<path d="M200.336 32.3998V33.2889" stroke="#A0DAD2" stroke-width="0.73" stroke-miterlimit="10"/>
<path d="M197.334 17.9282C197.27 17.7876 197.175 17.6701 197.059 17.5881C196.943 17.5061 196.81 17.4628 196.674 17.4628C196.539 17.4628 196.406 17.5061 196.289 17.5881C196.173 17.6701 196.078 17.7876 196.014 17.9282C194.725 20.4269 192 26.6558 192 34.5558C192 38.5963 193.856 42.2651 196.674 42.2651C199.492 42.2651 201.348 38.5963 201.348 34.5558C201.348 26.6396 198.621 20.4269 197.334 17.9282Z" fill="#256B62"/>
<path d="M196.674 21.2965V48.2161" stroke="#0B2B52" stroke-width="0.73" stroke-miterlimit="10"/>
<path d="M194.562 48.2159H198.78" stroke="white" stroke-width="0.73" stroke-miterlimit="10"/>
<path d="M198.549 31.9569V32.846" stroke="#A0DAD2" stroke-width="0.73" stroke-miterlimit="10"/>
<path d="M193.498 37.0609V37.95" stroke="#A0DAD2" stroke-width="0.73" stroke-miterlimit="10"/>
<path d="M193.498 31.8082V32.6973" stroke="#A0DAD2" stroke-width="0.73" stroke-miterlimit="10"/>
<path d="M198.068 23.876V24.7651" stroke="#A0DAD2" stroke-width="0.73" stroke-miterlimit="10"/>
<path d="M198.068 37.5037V38.3928" stroke="#A0DAD2" stroke-width="0.73" stroke-miterlimit="10"/>
<path d="M199.099 35.1603V36.0494" stroke="#A0DAD2" stroke-width="0.73" stroke-miterlimit="10"/>
<path d="M198.78 27.3767V28.2658" stroke="#A0DAD2" stroke-width="0.73" stroke-miterlimit="10"/>
<path d="M196.006 33.6378V34.5269" stroke="#A0DAD2" stroke-width="0.73" stroke-miterlimit="10"/>
<path d="M195.561 25.7184V26.6075" stroke="#A0DAD2" stroke-width="0.73" stroke-miterlimit="10"/>
<path d="M195.079 29.3904V30.2795" stroke="#A0DAD2" stroke-width="0.73" stroke-miterlimit="10"/>
<path d="M195.561 21.1089V21.998" stroke="#A0DAD2" stroke-width="0.73" stroke-miterlimit="10"/>
<path d="M194.7 35.6063V36.4954" stroke="#A0DAD2" stroke-width="0.73" stroke-miterlimit="10"/>
<path d="M195.354 39.0747V39.9638" stroke="#A0DAD2" stroke-width="0.73" stroke-miterlimit="10"/>
<path d="M197.623 25.4921L196.674 27.8194" stroke="#0B2B52" stroke-width="0.73" stroke-miterlimit="10"/>
<path d="M195.561 27.8195L196.674 30.4539" stroke="#0B2B52" stroke-width="0.73" stroke-miterlimit="10"/>
<path d="M199.547 32.8458L196.674 37.0609" stroke="#0B2B52" stroke-width="0.73" stroke-miterlimit="10"/>
<path d="M208.607 12.4655C208.543 12.3249 208.448 12.2073 208.332 12.1253C208.215 12.0433 208.082 12 207.947 12C207.811 12 207.678 12.0433 207.562 12.1253C207.446 12.2073 207.351 12.3249 207.287 12.4655C205.997 14.9609 203.273 21.193 203.273 29.093C203.273 33.1336 205.129 36.8024 207.947 36.8024C210.765 36.8024 212.621 33.1336 212.621 29.093C212.621 21.1833 209.893 14.9609 208.607 12.4655Z" fill="#3CAAB0"/>
<path d="M207.947 15.8336V42.7532" stroke="#0B2B52" stroke-width="0.73" stroke-miterlimit="10"/>
<path d="M205.835 42.7532H210.053" stroke="white" stroke-width="0.73" stroke-miterlimit="10"/>
<path d="M209.822 26.4941V27.3832" stroke="#A0DAD2" stroke-width="0.73" stroke-miterlimit="10"/>
<path d="M204.771 31.5981V32.4872" stroke="#A0DAD2" stroke-width="0.73" stroke-miterlimit="10"/>
<path d="M204.771 26.3455V27.2346" stroke="#A0DAD2" stroke-width="0.73" stroke-miterlimit="10"/>
<path d="M209.341 18.4131V19.3022" stroke="#A0DAD2" stroke-width="0.73" stroke-miterlimit="10"/>
<path d="M209.341 32.041V32.9301" stroke="#A0DAD2" stroke-width="0.73" stroke-miterlimit="10"/>
<path d="M210.372 29.6974V30.5865" stroke="#A0DAD2" stroke-width="0.73" stroke-miterlimit="10"/>
<path d="M210.053 21.9138V22.8029" stroke="#A0DAD2" stroke-width="0.73" stroke-miterlimit="10"/>
<path d="M207.279 28.1749V29.064" stroke="#A0DAD2" stroke-width="0.73" stroke-miterlimit="10"/>
<path d="M206.833 20.2556V21.1447" stroke="#A0DAD2" stroke-width="0.73" stroke-miterlimit="10"/>
<path d="M206.352 23.9277V24.8168" stroke="#A0DAD2" stroke-width="0.73" stroke-miterlimit="10"/>
<path d="M206.833 15.6461V16.5352" stroke="#A0DAD2" stroke-width="0.73" stroke-miterlimit="10"/>
<path d="M205.973 30.1436V31.0327" stroke="#A0DAD2" stroke-width="0.73" stroke-miterlimit="10"/>
<path d="M206.627 33.6119V34.501" stroke="#A0DAD2" stroke-width="0.73" stroke-miterlimit="10"/>
<path d="M208.895 20.0293L207.947 22.3566" stroke="#0B2B52" stroke-width="0.73" stroke-miterlimit="10"/>
<path d="M206.833 22.3566L207.947 24.991" stroke="#0B2B52" stroke-width="0.73" stroke-miterlimit="10"/>
<path d="M210.82 27.3831L207.947 31.5981" stroke="#0B2B52" stroke-width="0.73" stroke-miterlimit="10"/>
<path d="M218.986 22.5927C218.922 22.4521 218.827 22.3345 218.711 22.2525C218.594 22.1705 218.461 22.1272 218.326 22.1272C218.19 22.1272 218.057 22.1705 217.941 22.2525C217.825 22.3345 217.73 22.4521 217.666 22.5927C216.377 25.0913 213.652 31.3202 213.652 39.2202C213.652 43.264 215.508 46.9295 218.326 46.9295C221.144 46.9295 223 43.264 223 39.2202C223 31.3105 220.273 25.0913 218.986 22.5927Z" fill="#A0DAD2"/>
<path d="M218.326 25.9609V52.8805" stroke="#0B2B52" stroke-width="0.73" stroke-miterlimit="10"/>
<path d="M216.214 52.8804H220.432" stroke="white" stroke-width="0.73" stroke-miterlimit="10"/>
<path d="M220.201 36.6213V37.5104" stroke="#A0DAD2" stroke-width="0.73" stroke-miterlimit="10"/>
<path d="M215.15 41.7255V42.6146" stroke="#A0DAD2" stroke-width="0.73" stroke-miterlimit="10"/>
<path d="M215.15 36.4727V37.3618" stroke="#A0DAD2" stroke-width="0.73" stroke-miterlimit="10"/>
<path d="M219.72 28.5404V29.4295" stroke="#A0DAD2" stroke-width="0.73" stroke-miterlimit="10"/>
<path d="M219.72 42.1714V43.0605" stroke="#A0DAD2" stroke-width="0.73" stroke-miterlimit="10"/>
<path d="M220.751 39.828V40.7171" stroke="#A0DAD2" stroke-width="0.73" stroke-miterlimit="10"/>
<path d="M220.432 32.041V32.9301" stroke="#A0DAD2" stroke-width="0.73" stroke-miterlimit="10"/>
<path d="M217.658 38.3054V39.1945" stroke="#A0DAD2" stroke-width="0.73" stroke-miterlimit="10"/>
<path d="M217.212 30.3861V31.2752" stroke="#A0DAD2" stroke-width="0.73" stroke-miterlimit="10"/>
<path d="M216.731 34.058V34.9471" stroke="#A0DAD2" stroke-width="0.73" stroke-miterlimit="10"/>
<path d="M217.212 25.7733V26.6624" stroke="#A0DAD2" stroke-width="0.73" stroke-miterlimit="10"/>
<path d="M216.352 40.2708V41.1598" stroke="#A0DAD2" stroke-width="0.73" stroke-miterlimit="10"/>
<path d="M217.006 43.7423V44.6314" stroke="#A0DAD2" stroke-width="0.73" stroke-miterlimit="10"/>
<path d="M219.274 30.1565L218.326 32.4871" stroke="#0B2B52" stroke-width="0.73" stroke-miterlimit="10"/>
<path d="M217.212 32.4871L218.326 35.1183" stroke="#0B2B52" stroke-width="0.73" stroke-miterlimit="10"/>
<path d="M221.199 37.5103L218.326 41.7253" stroke="#0B2B52" stroke-width="0.73" stroke-miterlimit="10"/>
</g>
<g clip-path="url(#clip1_71_1169)">
<path d="M131.266 26.5714H145.268L151.24 19.7998H137.238L131.266 26.5714Z" fill="#FFDE3F"/>
<path d="M137.862 20.4381L132.849 25.8935V40.9828H142.876V25.8935L137.862 20.4381Z" fill="#E09941"/>
<path d="M156.244 25.8937H142.876V40.983H156.244V25.8937Z" fill="#FFDE3F"/>
<path d="M157.081 26.5714H143.078L137.104 19.7998H151.106L157.081 26.5714Z" fill="#F7AC2D"/>
<path d="M136.039 28.0803H135.193V30.1696H136.039V28.0803Z" fill="white"/>
<path d="M140.61 28.0803H139.764V30.1696H140.61V28.0803Z" fill="white"/>
<path d="M136.039 31.8713H135.193V33.9606H136.039V31.8713Z" fill="white"/>
<path d="M140.61 31.8713H139.764V33.9606H140.61V31.8713Z" fill="white"/>
<path d="M145.644 28.0803H144.798V30.1696H145.644V28.0803Z" fill="white"/>
<path d="M150.214 28.0803H149.369V30.1696H150.214V28.0803Z" fill="white"/>
<path d="M145.644 31.8713H144.798V33.9606H145.644V31.8713Z" fill="white"/>
<path d="M150.214 31.8713H149.369V33.9606H150.214V31.8713Z" fill="white"/>
<path d="M154.785 28.0803H153.939V30.1696H154.785V28.0803Z" fill="white"/>
<path d="M154.785 31.8713H153.939V33.9606H154.785V31.8713Z" fill="white"/>
<path d="M139.075 40.983H136.655V37.2293C136.655 36.906 136.782 36.596 137.009 36.3675C137.236 36.1389 137.544 36.0105 137.865 36.0105C138.186 36.0105 138.493 36.1389 138.72 36.3675C138.947 36.596 139.075 36.906 139.075 37.2293V40.983Z" fill="#092242"/>
<path d="M146.623 40.9829C146.623 40.9829 146.623 37.3846 148.986 37.3266C151.348 37.2686 151.521 35.9709 153.538 36.0104C155.555 36.0498 156.304 28.4077 158.263 29.1227C160.222 29.8377 160.741 37.2686 160.741 37.2686C160.741 37.2686 162.931 37.907 163.564 40.9829H146.623Z" fill="#42CCF8"/>
</g>
<g clip-path="url(#clip2_71_1169)">
<path d="M34.7542 31.2698C34.1587 25.6633 31.9548 23.3036 31.9548 23.3036C31.9548 23.3036 32.1228 17.8628 30.1734 15.5032C30.1734 15.5032 29.6644 3.96825 24.4067 0.799316C19.1235 3.96825 18.6145 15.5178 18.6145 15.5178C16.6651 17.8774 16.8331 23.3183 16.8331 23.3183C16.8331 23.3183 14.6292 25.6779 14.0337 31.2845C13.4382 36.891 20.06 36.969 24.3863 36.969C28.7126 36.969 35.3293 36.8764 34.7542 31.2698Z" fill="#FFDE3F"/>
<path d="M24.3882 10.1453V43.619" stroke="#6B3E00" stroke-width="0.73" stroke-miterlimit="10"/>
<path d="M20.7389 43.6189H28.3735" stroke="white" stroke-width="0.73" stroke-miterlimit="10"/>
<path d="M25.8693 12.1343L24.3882 15.6689" stroke="#6B3E00" stroke-width="0.73" stroke-miterlimit="10"/>
<path d="M21.4159 15.9761L24.3883 23.289" stroke="#6B3E00" stroke-width="0.73" stroke-miterlimit="10"/>
<path d="M30.2618 24.6884L24.3882 32.4888" stroke="#6B3E00" stroke-width="0.73" stroke-miterlimit="10"/>
<path d="M18.7437 24.9951V26.7015" stroke="#C76C1F" stroke-width="0.73" stroke-miterlimit="10"/>
<path d="M21.1002 27.7351V29.4415" stroke="#C76C1F" stroke-width="0.73" stroke-miterlimit="10"/>
<path d="M17.6646 32.4885V34.1949" stroke="#C76C1F" stroke-width="0.73" stroke-miterlimit="10"/>
<path d="M25.8694 24.6884V26.3947" stroke="#C76C1F" stroke-width="0.73" stroke-miterlimit="10"/>
<path d="M28.3735 32.4885V34.1949" stroke="#C76C1F" stroke-width="0.73" stroke-miterlimit="10"/>
<path d="M21.4159 10.9154V12.6218" stroke="#C76C1F" stroke-width="0.73" stroke-miterlimit="10"/>
<path d="M28.6688 20.6661V22.3725" stroke="#C76C1F" stroke-width="0.73" stroke-miterlimit="10"/>
<path d="M26.8874 15.6689V17.3753" stroke="#C76C1F" stroke-width="0.73" stroke-miterlimit="10"/>
<path d="M25.1314 4.33398V6.04033" stroke="#C76C1F" stroke-width="0.73" stroke-miterlimit="10"/>
<path d="M29.8139 30.7823V32.4887" stroke="#C76C1F" stroke-width="0.73" stroke-miterlimit="10"/>
<path d="M49.9185 31.148C49.5752 29.1824 48.8869 27.2867 47.8826 25.5414C47.8826 25.5414 50.6209 22.3725 44.1315 15.6689C37.642 22.3725 40.3752 25.5414 40.3752 25.5414C39.371 27.2867 38.6826 29.1824 38.3393 31.148C37.7031 34.5607 41.0776 35.9599 44.1315 35.9599C47.1853 35.9599 50.5344 34.5607 49.9185 31.148Z" fill="#FFDE3F"/>
<path d="M44.1315 20.6661V43.619" stroke="#6B3E00" stroke-width="0.73" stroke-miterlimit="10"/>
<path d="M40.3141 43.6189H47.9487" stroke="white" stroke-width="0.73" stroke-miterlimit="10"/>
<path d="M42.8387 19.4473V21.1536" stroke="#C76C1F" stroke-width="0.73" stroke-miterlimit="10"/>
<path d="M45.7195 23.2888V24.9952" stroke="#C76C1F" stroke-width="0.73" stroke-miterlimit="10"/>
<path d="M46.3151 29.7489V31.4552" stroke="#C76C1F" stroke-width="0.73" stroke-miterlimit="10"/>
<path d="M42.4977 27.311V29.0174" stroke="#C76C1F" stroke-width="0.73" stroke-miterlimit="10"/>
<path d="M42.4977 32.1425V33.8488" stroke="#C76C1F" stroke-width="0.73" stroke-miterlimit="10"/>
<path d="M40.7162 29.4418V31.1481" stroke="#C76C1F" stroke-width="0.73" stroke-miterlimit="10"/>
</g>
<g clip-path="url(#clip3_71_1169)">
<path d="M287.275 37.572C287.275 37.8463 287.194 38.1146 287.042 38.3427C286.889 38.5708 286.673 38.7487 286.419 38.8537C286.166 38.9587 285.887 38.9861 285.618 38.9326C285.349 38.8791 285.102 38.7469 284.909 38.5529C284.715 38.3589 284.583 38.1117 284.529 37.8426C284.476 37.5735 284.503 37.2946 284.608 37.0411C284.713 36.7876 284.891 36.5709 285.119 36.4185C285.347 36.2661 285.615 36.1847 285.889 36.1847C286.257 36.1847 286.609 36.3309 286.869 36.591C287.129 36.8512 287.275 37.204 287.275 37.572Z" fill="#FFEED2"/>
<path d="M250.074 37.572C250.074 37.8463 249.993 38.1146 249.841 38.3427C249.688 38.5708 249.472 38.7487 249.219 38.8537C248.965 38.9587 248.686 38.9861 248.418 38.9326C248.149 38.8791 247.902 38.7469 247.708 38.5529C247.514 38.3589 247.382 38.1117 247.328 37.8426C247.275 37.5735 247.302 37.2946 247.407 37.0411C247.512 36.7876 247.69 36.5709 247.918 36.4185C248.146 36.2661 248.414 36.1847 248.688 36.1847C249.056 36.1847 249.408 36.3309 249.668 36.591C249.928 36.8512 250.074 37.204 250.074 37.572Z" fill="#FFEED2"/>
<path d="M254.321 19.3062L253.383 26.2379H248.702L246.53 19.1536L254.321 19.3062Z" fill="#96C5BB"/>
<path d="M257.829 46.9776C257.829 47.3568 253.734 47.6666 248.688 47.6666C243.642 47.6666 239.552 47.3568 239.552 46.9776C239.552 46.5984 243.642 46.2886 248.688 46.2886C253.734 46.2886 257.829 46.5845 257.829 46.9776Z" fill="#28C0F0" fill-opacity="0.26"/>
<path d="M248.702 46.2932C253.513 46.2932 257.413 42.3907 257.413 37.5766C257.413 32.7625 253.513 28.8599 248.702 28.8599C243.891 28.8599 239.991 32.7625 239.991 37.5766C239.991 42.3907 243.891 46.2932 248.702 46.2932Z" stroke="#039ECF" stroke-width="4" stroke-miterlimit="10"/>
<path d="M248.702 45.7846C253.232 45.7846 256.905 42.1097 256.905 37.5766C256.905 33.0434 253.232 29.3685 248.702 29.3685C244.172 29.3685 240.499 33.0434 240.499 37.5766C240.499 42.1097 244.172 45.7846 248.702 45.7846Z" stroke="#092242" stroke-miterlimit="10"/>
<path d="M264.899 24.3513L269.123 33.0079C269.123 33.0079 267.459 33.0495 267.806 33.3963C268.153 33.7431 270.713 33.6969 270.713 33.6969L268.749 27.1629L264.899 24.3513Z" fill="#FFEED2"/>
<path d="M295.043 46.9776C295.043 47.3568 290.949 47.6666 285.903 47.6666C280.856 47.6666 276.776 47.3568 276.776 46.9776C276.776 46.5984 280.866 46.2886 285.912 46.2886C290.958 46.2886 295.043 46.5845 295.043 46.9776Z" fill="#28C0F0" fill-opacity="0.26"/>
<path d="M285.903 46.2932C290.714 46.2932 294.614 42.3907 294.614 37.5766C294.614 32.7625 290.714 28.8599 285.903 28.8599C281.092 28.8599 277.192 32.7625 277.192 37.5766C277.192 42.3907 281.092 46.2932 285.903 46.2932Z" stroke="#039ECF" stroke-width="4" stroke-miterlimit="10"/>
<path d="M285.903 45.7846C290.433 45.7846 294.105 42.1097 294.105 37.5766C294.105 33.0434 290.433 29.3685 285.903 29.3685C281.372 29.3685 277.7 33.0434 277.7 37.5766C277.7 42.1097 281.372 45.7846 285.903 45.7846Z" stroke="#092242" stroke-miterlimit="10"/>
<path d="M270.301 33.9373L271.808 37.5765" stroke="#FFEED2" stroke-width="0.66" stroke-miterlimit="10"/>
<path d="M271.438 33.6968H269.215V34.1731H271.438V33.6968Z" fill="#FFEED2"/>
<path d="M274.216 40.9984H271.993V41.4747H274.216V40.9984Z" fill="#FFEED2"/>
<path d="M272.215 35.7546L285.903 36.3697V38.7095L271.993 39.417" stroke="#787878" stroke-width="0.5" stroke-miterlimit="10"/>
<path d="M273.924 37.572C273.925 37.9911 273.802 38.401 273.57 38.7499C273.338 39.0988 273.008 39.371 272.621 39.532C272.234 39.693 271.809 39.7356 271.398 39.6544C270.987 39.5732 270.609 39.3719 270.313 39.0759C270.017 38.7798 269.815 38.4025 269.732 37.9915C269.65 37.5806 269.692 37.1545 269.852 36.7672C270.012 36.38 270.283 36.0489 270.632 35.816C270.98 35.5831 271.389 35.4587 271.808 35.4587C272.369 35.4587 272.906 35.6812 273.303 36.0774C273.7 36.4736 273.923 37.0111 273.924 37.572Z" fill="#FFEED2"/>
<path d="M287.275 37.572C287.275 37.8463 287.194 38.1146 287.042 38.3427C286.889 38.5708 286.673 38.7487 286.419 38.8537C286.166 38.9587 285.887 38.9861 285.618 38.9326C285.349 38.8791 285.102 38.7469 284.909 38.5529C284.715 38.3589 284.583 38.1117 284.529 37.8426C284.476 37.5735 284.503 37.2946 284.608 37.0411C284.713 36.7876 284.891 36.5709 285.119 36.4185C285.347 36.2661 285.615 36.1847 285.889 36.1847C286.257 36.1847 286.609 36.3309 286.869 36.591C287.129 36.8512 287.275 37.204 287.275 37.572Z" fill="#FFEED2"/>
<path d="M271.808 37.5997L273.31 41.239" stroke="#FFEED2" stroke-width="0.66" stroke-miterlimit="10"/>
<path d="M248.702 37.572L250.652 35.8425C252.052 34.6052 253.005 32.9411 253.365 31.1073L255.869 18.3768C255.869 18.3768 256.752 13.452 262.464 15.3525" stroke="#4D483F" stroke-width="2" stroke-linecap="round" stroke-linejoin="round"/>
<path d="M254.483 25.4055L272.196 37.5765L274.784 21.3085" stroke="#4D483F" stroke-width="2" stroke-linecap="round" stroke-linejoin="round"/>
<path d="M255.449 20.4946C255.449 20.4946 261.387 29.9281 273.504 29.3732" stroke="#4D483F" stroke-width="2" stroke-linecap="round" stroke-linejoin="round"/>
<path d="M274.4 23.7271C274.4 23.7271 283.366 29.2021 286.138 37.5998H272.561" stroke="#4D483F" stroke-width="2" stroke-linecap="round" stroke-linejoin="round"/>
<path d="M274.789 31.6251C274.789 31.6251 274.035 40.9985 273.504 40.9985C272.973 40.9985 270.773 41.2204 270.916 40.8459C271.059 40.4713 272.672 40.5314 272.848 39.6898C273.023 38.8482 272.677 30.8436 272.677 30.8436L274.789 31.6251Z" fill="#FFEED2"/>
<path d="M268.633 1.53985L268.171 3.38955L268.633 3.50515C268.633 3.50515 268.559 4.73983 268.827 4.89243C269.208 4.97105 269.601 4.97105 269.983 4.89243L270.828 6.51091L273.458 5.98837L270.814 1.36414L268.633 1.53985Z" fill="#FFEED2"/>
<path d="M276.549 14.3722C277.241 16.8686 277.514 19.4625 277.358 22.0484C277.067 26.164 275.047 32.1154 275.047 32.1154C275.047 32.1154 271.401 31.3062 269.206 29.979C267.011 28.6518 266.434 24.8923 263.199 23.8519C263.199 23.8519 264.876 20.9617 267.358 19.6901C269.839 18.4184 271.692 17.267 272.099 14.6774L276.549 14.3722Z" fill="#28C0F0"/>
<path d="M273.458 5.35486C273.458 5.35486 270.828 5.55833 270.426 6.68202C270.024 7.80571 269.705 8.27275 270.283 9.66002C270.861 11.0473 271.697 12.9571 271.378 13.5629C271.059 14.1687 270.773 14.5432 271.323 14.6311C271.873 14.7189 275.856 14.6311 276.693 14.6311C277.529 14.6311 277.243 13.919 276.693 12.0646C276.143 10.2103 275.057 5.42885 273.458 5.35486Z" fill="url(#paint0_linear_71_1169)"/>
<path d="M274.789 17.3778H281.457C281.457 17.3778 282.326 22.5801 280.043 22.5801C277.76 22.5801 275.251 21.8587 274.789 17.3778Z" fill="#092242"/>
<path d="M275.052 17.5259L271.23 9.34558" stroke="#092242" stroke-width="0.5" stroke-miterlimit="10"/>
<path d="M281.198 17.8126L272.215 7.32019" stroke="#092242" stroke-width="0.5" stroke-miterlimit="10"/>
<path d="M272.409 7.16753C273.652 7.76405 270.514 11.7918 268.837 13.7756C268.54 14.1314 268.169 14.4177 267.75 14.6143C267.331 14.8109 266.873 14.9129 266.41 14.9131H260.047C260.047 14.9131 258.97 15.6438 258.776 15.1813C258.737 15.0407 258.73 14.8931 258.756 14.7495C258.782 14.6059 258.839 14.4698 258.924 14.3513C259.009 14.2329 259.12 14.135 259.248 14.065C259.376 13.9949 259.518 13.9545 259.663 13.9467C260.394 13.8311 266.641 12.897 266.641 12.897C266.641 12.897 268.749 11.0195 269.599 9.55364C270.449 8.08775 271.448 6.7051 272.409 7.16753Z" fill="#FFEED2"/>
<path d="M267.866 1.15606C267.755 1.85432 269.021 2.1179 270.177 2.50172C271.332 2.88553 270.676 3.62078 271.216 4.66123C271.757 5.70169 272.949 5.16065 273.911 6.47394C274.872 7.78722 278.532 13.4473 280.921 11.7502C283.31 10.0531 282.076 7.51902 280.38 6.60804C278.684 5.69707 277.182 5.00805 276.027 3.54217C274.872 2.07629 272.524 0 271.022 0C269.52 0 268.019 0.1526 267.866 1.15606Z" fill="#092242"/>
</g>
<path d="M85.077 20.1567C87.7885 15.5831 94.4083 15.5831 97.1198 20.1567L109.502 41.0428H72.6948L85.077 20.1567Z" fill="#42CCF8"/>
<path d="M69.0262 24.2201C71.7342 19.6273 78.3778 19.6273 81.0859 24.2201L91.112 41.2241H59L69.0262 24.2201Z" fill="#8EE4FF"/>
<path opacity="0.3" d="M84.5006 21.2556L81.9034 25.431L91.3481 41.0431H95.3621L84.5006 21.2556Z" fill="#0199CA"/>
<defs>
<linearGradient id="paint0_linear_71_1169" x1="269.968" y1="5.35486" x2="269.968" y2="14.6701" gradientUnits="userSpaceOnUse">
<stop stop-color="#14D1F2"/>
<stop offset="1" stop-color="#5CE7FF"/>
</linearGradient>
<clipPath id="clip0_71_1169">
<rect width="31" height="41" fill="white" transform="translate(192 12)"/>
</clipPath>
<clipPath id="clip1_71_1169">
<rect width="35.9333" height="21.2667" fill="white" transform="translate(129.8 19.7998)"/>
</clipPath>
<clipPath id="clip2_71_1169">
<rect width="36" height="43" fill="white" transform="translate(14 0.799316)"/>
</clipPath>
<clipPath id="clip3_71_1169">
<rect width="56.4667" height="47.6667" fill="white" transform="translate(239.067)"/>
</clipPath>
</defs>
</svg>
