<svg width="248" height="125" viewBox="0 0 248 125" fill="none" xmlns="http://www.w3.org/2000/svg">
<path d="M27.602 95.4864C29.0042 92.2884 30.7759 88.033 32.9171 82.7203C35.0582 77.4077 36.6715 73.6054 37.7571 71.3136C38.8427 69.0219 39.835 67.2297 40.7341 65.9371C42.8514 62.9821 45.3435 61.0497 48.2106 60.1397C48.8511 59.9364 49.6501 59.9682 50.6077 60.235C51.5958 60.4921 52.2641 61.1697 52.6126 62.2677C52.9514 63.3352 52.4524 65.3066 51.1156 68.1817C50.4575 69.5992 49.3517 71.1924 47.798 72.9613C46.2652 74.69 44.4358 76.2778 42.3099 77.7247C41.4738 78.158 40.8422 78.4424 40.4152 78.5779C40.0187 78.7037 39.8059 78.7209 39.7769 78.6294C39.7479 78.5379 39.8207 78.3973 39.9955 78.2075C42.1123 75.9913 44.3065 72.9615 46.5783 69.1182C48.8805 65.2652 49.8913 62.8964 49.6106 62.0119C49.5718 61.8899 49.461 61.8579 49.278 61.916C49.1255 61.9644 48.9521 62.053 48.758 62.1818C48.5944 62.3009 48.4002 62.4296 48.1756 62.5681C47.9509 62.7065 47.5147 63.1303 46.8669 63.8395C46.2094 64.5183 45.5449 65.3335 44.8734 66.2852C44.2226 67.1968 43.4593 68.547 42.5834 70.3358C41.7283 72.0844 40.9258 74.0513 40.1757 76.2366C37.3793 84.8796 35.4904 90.2465 34.509 92.3374C34.3521 92.6893 34.1536 93.1216 33.9134 93.6343C34.705 93.4838 35.8826 93.2275 37.4464 92.8655C39.0101 92.5035 40.0658 92.2859 40.6133 92.2128C41.1817 92.0996 42.0231 92.0004 43.1376 91.9153C44.2521 91.8301 45.1724 91.8738 45.8986 92.0462C47.7944 92.5188 49.7405 93.3615 51.737 94.5744C52.1886 94.8339 52.4338 95.0247 52.4726 95.1467C52.5113 95.2687 52.4849 95.3442 52.3934 95.3732C52.2409 95.4216 52.0233 95.4236 51.7405 95.379C51.2443 95.4022 50.5201 95.4474 49.5678 95.5147C48.646 95.5722 46.6983 95.8882 43.7248 96.4627C40.7512 97.0372 38.0597 97.7068 35.6502 98.4716C33.2711 99.2267 31.5374 99.7937 30.4491 100.173C29.3166 102.211 27.4944 104.35 24.9826 106.591C22.4708 108.832 20.4829 110.185 19.0189 110.649C17.5244 111.124 15.9955 111.173 14.4323 110.796C12.8787 110.45 11.8938 109.621 11.4776 108.309C11.1775 107.364 11.5651 106.099 12.6404 104.516C15.1117 100.878 20.0988 97.8678 27.602 95.4864ZM14.415 108.837C14.5118 109.142 14.9407 109.224 15.7018 109.084C16.6473 108.783 17.4362 108.466 18.0685 108.131C18.7105 107.826 19.5952 107.176 20.7228 106.181C21.8199 105.194 22.9061 103.91 23.9815 102.326C22.0295 102.946 19.899 104.008 17.5901 105.513C15.2507 107.028 14.1923 108.136 14.415 108.837ZM44.6973 69.2116C44.5521 68.7541 44.7312 68.2608 45.2347 67.7317L49.9196 63.9282C50.0223 63.8285 50.1803 63.7447 50.3939 63.677C50.6379 63.5995 50.8852 63.6385 51.136 63.7939C51.3868 63.9493 51.6189 63.9932 51.8324 63.9254C52.0459 63.8576 52.464 63.641 53.0866 63.2755C53.73 62.8699 54.5925 62.3611 55.6741 61.7493C56.746 61.1069 57.96 60.4362 59.3161 59.7372C62.4872 58.0928 65.8876 56.6947 69.5171 55.5427C73.8177 54.1777 76.9999 53.5202 79.0637 53.5702C79.8829 53.6124 80.6139 53.8 81.2568 54.1331C81.9205 54.4261 82.3589 54.9081 82.5718 55.5791C82.6977 55.9756 82.4861 56.261 81.9371 56.4352C74.3797 59.0689 68.2972 61.5366 63.6897 63.8383C63.221 64.0542 63.0302 64.2994 63.1174 64.5739C63.1464 64.6654 63.1755 64.7569 63.2045 64.8484C63.2544 64.8997 63.2008 65.1013 63.044 65.4533L59.6311 72.63C59.4854 72.9113 59.4319 73.1129 59.4706 73.2349C59.4997 73.3264 59.5447 73.3625 59.6057 73.3431C59.6972 73.3141 59.8858 73.2207 60.1714 73.0629C62.1152 72.3116 63.9259 71.6698 65.6034 71.1373C67.281 70.6049 68.2708 70.3915 68.5729 70.497C70.2343 71.0776 71.2202 71.4865 71.5306 71.7238C71.8714 71.9513 72.0708 72.1566 72.1289 72.3396C72.2547 72.7361 71.9967 73.0866 71.3547 73.3911C63.5542 76.7398 59.3338 78.5158 58.6932 78.7191C58.0431 78.8919 57.6265 79.0073 57.4435 79.0654C56.9554 79.2203 56.5274 79.7758 56.1594 80.7319L52.9302 89.9151C52.8552 90.2075 52.837 90.4147 52.8757 90.5367C52.9048 90.6282 52.9803 90.6546 53.1023 90.6159C53.2243 90.5772 53.3879 90.4581 53.5932 90.2586C56.3151 88.8911 58.9113 87.8153 61.3818 87.0312C63.8829 86.2374 65.7676 85.7231 67.036 85.4884C68.7136 84.956 70.9051 85.6201 73.6108 87.4808C73.8311 87.6459 73.9703 87.8199 74.0283 88.0029C74.0864 88.1859 73.8867 88.35 73.4292 88.4952C65.8346 90.9057 60.1031 92.8927 56.2348 94.4562C56.092 94.5351 55.8986 94.6132 55.6546 94.6907C54.3431 95.107 53.3465 95.0875 52.6649 94.6324C52.5153 94.4784 52.3337 94.4353 52.1202 94.5031C51.9067 94.5709 51.7576 94.7357 51.6729 94.9976C51.5576 95.2692 51.4543 95.4195 51.3628 95.4486C51.2713 95.4776 51.0592 95.4442 50.7266 95.3483C50.394 95.2524 50.0179 95.0193 49.5982 94.6489C49.1576 94.3187 48.8599 93.9096 48.705 93.4216C48.5405 92.9031 48.4972 92.3964 48.5751 91.9017C48.6226 91.4166 48.7076 90.7853 48.8301 90.0078C48.9222 89.24 49.2607 87.8735 49.8456 85.9085C50.4514 83.9033 51.1804 82.1276 52.0325 80.5813C52.1366 80.3804 52.1693 80.219 52.1306 80.097C52.0822 79.9444 51.8902 79.9214 51.5547 80.0279C51.2497 80.1247 50.8956 80.1196 50.4923 80.0126C50.1099 79.8654 49.8557 79.5936 49.7299 79.1971C49.5943 78.77 50.0168 78.2499 50.9972 77.6365L53.2644 76.2119C53.2949 76.2022 53.3102 76.1974 53.3102 76.1974C53.7982 76.0425 54.1845 75.5674 54.4693 74.7719C56.9134 70.2024 58.4691 67.5936 59.1362 66.9454C59.3527 66.6752 59.4464 66.4944 59.4173 66.4029C59.3786 66.2809 59.2677 66.249 59.0847 66.307C58.9017 66.3651 58.7541 66.4288 58.6417 66.498C55.9504 67.8558 53.766 68.8009 52.0884 69.3334C50.4109 69.8658 49.1667 70.1768 48.3557 70.2663C47.5448 70.3558 46.9225 70.3519 46.4887 70.2545C45.5311 69.9877 44.9734 69.7115 44.8156 69.4259L44.6973 69.2116ZM71.7246 61.9428C71.2976 62.0783 70.4196 61.9037 69.0907 61.419C67.7313 60.944 66.9693 60.4472 66.8048 59.9287C66.6402 59.4102 66.8804 58.8975 67.5252 58.3907C68.7347 57.3354 70.0029 56.4125 71.3299 55.622L71.9726 55.2669C72.1058 55.1575 72.2333 55.0834 72.3553 55.0447C72.5689 54.977 72.7143 55.0651 72.7918 55.3091C72.8595 55.5226 73.0154 55.5906 73.2594 55.5132C73.5034 55.4357 74.5489 54.8689 76.3959 53.8126C81.9563 50.7049 87.3901 48.3088 92.6972 46.6244C95.8082 45.637 98.5676 45.1808 100.975 45.256C103.403 45.291 104.835 45.9948 105.271 47.3673C105.368 47.6723 104.989 47.9604 104.135 48.2314C103.312 48.4928 102.31 48.8275 101.13 49.2356C99.9809 49.6339 98.5314 50.1443 96.7817 50.7668C92.6917 52.2664 90.7484 53.3364 90.9517 53.9769C90.9904 54.0989 91.05 54.1808 91.1303 54.2224C91.1787 54.3749 91.0933 54.6874 90.8739 55.1599C90.6449 55.6019 90.3006 56.3155 89.8411 57.3006C89.3816 58.2858 88.5348 60.1661 87.3006 62.9415C86.0567 65.6864 84.9266 68.261 83.9102 70.6651C81.2999 76.9324 79.6277 81.6598 78.8935 84.8472C79.1312 85.9133 78.9907 86.5286 78.4722 86.6932C78.0757 86.819 77.4604 86.6786 76.6263 86.2719C75.7616 85.8748 75.189 85.2341 74.9082 84.3495C74.3855 82.7025 74.885 79.9924 76.4069 76.2192C77.9287 72.446 81.2841 66.0933 86.4731 57.161C86.7021 56.719 86.92 56.3477 87.1267 56.0471C87.4472 55.576 87.5978 55.31 87.5785 55.249C87.5591 55.188 87.4579 55.1866 87.2749 55.2446C87.0919 55.3027 86.7356 55.4494 86.2059 55.6846L72.6418 61.5006C72.4573 61.6598 72.1516 61.8072 71.7246 61.9428ZM100.253 43.3196C100.558 43.2228 100.776 43.2209 100.906 43.3139C101.498 43.6969 101.842 44.0409 101.939 44.3459C102.123 44.9254 101.848 46.0701 101.115 47.78C100.089 50.1536 99.3321 51.4178 98.844 51.5727C98.7525 51.6017 98.6923 51.5705 98.6632 51.479C98.6342 51.3875 98.6565 51.2461 98.7301 51.0549C98.9843 50.2692 99.1441 49.7149 99.2095 49.392L99.3388 48.8473C98.9296 49.1451 98.5878 49.3375 98.3133 49.4246C97.7353 49.5073 97.3543 49.259 97.1704 48.6795C96.8799 47.7644 97.1482 46.7057 97.9752 45.5032C98.7925 44.2701 99.5519 43.5423 100.253 43.3196ZM121.201 58.3762L116.592 60.0403C113.725 60.9503 111.759 61.4735 110.695 61.61C109.651 61.7063 108.689 61.743 107.809 61.7202C106.959 61.6877 106.247 61.561 105.674 61.3402C104.274 60.8444 103.347 59.8797 102.892 58.4462C102.756 58.0192 102.812 57.2964 103.06 56.2778C103.307 55.2592 103.872 53.972 104.755 52.416C105.658 50.8199 106.815 49.2275 108.224 47.6387C109.655 46.0097 111.677 44.3437 114.293 42.6407C116.908 40.9377 119.874 39.4928 123.19 38.3059C124.38 37.9283 125.679 37.6839 127.087 37.5727C128.516 37.4212 129.721 37.4082 130.701 37.5337C131.711 37.6495 132.682 38.0126 133.615 38.6232C134.537 39.2032 135.168 40.027 135.507 41.0945C135.778 41.9485 135.245 43.1249 133.908 44.6237C132.426 46.3025 130.176 47.6212 127.156 48.5795C124.167 49.5282 122.605 49.7891 122.469 49.3621C122.363 49.0266 123.106 48.3542 124.699 47.3449C126.323 46.3259 127.923 45.2306 129.498 44.0592C131.074 42.8877 131.74 41.9207 131.498 41.1582C131.373 40.7616 130.639 40.7764 129.297 41.2023C120.451 44.0097 113.583 48.7077 108.691 55.2964C107.782 56.5584 107.429 57.5097 107.633 58.1502C107.952 59.1567 111.284 58.6532 117.628 56.6396C123.351 54.8904 126.687 55.5103 127.635 58.4993C128.313 60.6344 127.508 63.1225 125.22 65.9637C122.933 68.8049 119.991 71.3836 116.395 73.7C112.83 76.0066 109.329 77.7221 105.892 78.8465C104.275 79.3596 102.432 79.4747 100.361 79.1918C98.2907 78.909 97.0618 78.1575 96.6746 76.9375C96.5487 76.541 96.8165 76.221 97.4778 75.9775C100.951 74.4387 103.118 73.2808 103.98 72.5039C104.204 72.3654 104.393 72.272 104.545 72.2236C104.698 72.1752 104.784 72.1815 104.803 72.2425C104.842 72.3645 104.722 72.6208 104.443 73.0115C104.165 73.301 103.853 73.5849 103.505 73.8633C102.747 74.4393 102.383 74.7731 102.412 74.8646C102.441 74.9561 102.761 74.905 103.371 74.7114C103.981 74.5178 105.444 73.7849 107.759 72.5128C110.075 71.2407 112.515 69.778 115.079 68.1249C117.674 66.4621 119.874 64.7228 121.682 62.9069C123.489 61.0911 124.228 59.6646 123.899 58.6276C123.686 57.9566 122.787 57.8728 121.201 58.3762ZM176.513 25.2593C177.525 25.2739 178.125 25.4192 178.314 25.6951L178.417 25.8636C178.621 26.5041 178.266 27.6072 177.353 29.1728C173.996 36.6843 171.727 42.3898 170.548 46.2894C170.198 47.4077 169.724 49.0353 169.126 51.1722C168.519 53.2786 168.014 54.9665 167.611 56.2358C167.249 57.526 166.724 59.1529 166.038 61.1164C165.392 63.1008 164.776 64.7567 164.19 66.0842C163.635 67.4019 162.905 68.9095 162 70.6068C161.125 72.2944 160.229 73.754 159.31 74.9855C157.236 77.7589 154.804 80.092 152.014 81.9848C151.221 82.2365 150.411 82.2754 149.583 82.1016C148.735 81.9679 148.185 81.5551 147.931 80.8633C147.439 79.2066 148.072 76.7565 149.829 73.5129C151.595 70.2999 154.411 67.3752 158.274 64.7389C158.836 64.3928 159.19 64.0285 159.337 63.6461L167.47 43.892L167.866 42.7592C167.889 42.6178 167.895 42.5319 167.885 42.5014C167.866 42.4404 167.826 42.4196 167.765 42.4389C167.734 42.4486 167.276 43.3326 166.391 45.0909C165.495 46.8187 164.724 48.356 164.077 49.7028C163.461 51.0399 162.607 52.6873 161.516 54.6451C160.416 56.5723 158.96 58.5956 157.148 60.715C155.377 62.8552 153.728 64.1673 152.203 64.6514C150.19 65.2903 148.519 64.3604 147.188 61.8618C146.903 61.2808 146.664 60.6853 146.47 60.0753C145.599 57.3302 145.854 54.0094 147.236 50.1127C148.578 46.1953 150.57 42.4744 153.211 38.9501C155.874 35.3857 158.926 32.1507 162.368 29.2452C165.801 26.3092 169.053 24.337 172.124 23.3288L172.169 23.3143C173.146 23.0045 174.06 23.0835 174.914 23.5512C175.788 23.9787 176.303 24.4365 176.458 24.9245C176.506 25.077 176.525 25.1886 176.513 25.2593ZM150.161 79.9543C150.219 80.1373 150.324 80.2046 150.477 80.1562L150.568 80.1271C151.331 79.8851 152.788 77.8112 154.939 73.9054C157.13 70.0204 158.278 67.2893 158.382 65.712C158.362 65.651 158.322 65.6302 158.261 65.6495C156.45 67.0302 154.586 69.5688 152.671 73.2655C150.765 76.9926 149.929 79.2222 150.161 79.9543ZM175.068 26.5743C175.192 26.3332 175.24 26.1669 175.211 26.0754C175.173 25.9534 175.016 25.936 174.741 26.0231C172.881 26.6136 170.705 28.0092 168.214 30.2099C165.744 32.3704 163.328 34.9669 160.967 37.9993C158.636 41.022 156.506 44.5183 154.577 48.488C152.668 52.4175 151.378 56.2345 150.708 59.939C150.655 60.0901 150.648 60.2266 150.686 60.3486C150.715 60.4401 150.806 60.4617 150.959 60.4133C152.667 59.8711 155.919 56.1027 160.716 49.1078C165.533 42.0728 170.317 34.5616 175.068 26.5743ZM196.371 14.9782C198.122 12.8782 199.76 11.5862 201.285 11.1021C202.688 10.6568 203.742 10.9098 204.447 11.8612C204.685 12.1885 204.838 12.4589 204.906 12.6724C205.273 13.8314 205.194 15.8543 204.666 18.7411C204.139 21.6279 203.252 24.8638 202.006 28.4487C200.751 32.003 199.294 35.5039 197.635 38.9513C195.976 42.3986 194.07 45.4376 191.917 48.0682C189.764 50.6988 187.665 52.3384 185.622 52.987C184.188 53.442 182.668 53.2531 181.061 52.4203C179.453 51.5875 178.374 50.3019 177.822 48.5633C177.261 46.7943 177.124 44.6721 177.413 42.1968C177.692 39.691 178.332 37.0537 179.334 34.2851C180.365 31.5067 181.613 28.8277 183.078 26.2478C184.532 23.6375 186.286 21.3351 188.339 19.3407C190.422 17.3365 192.577 15.9811 194.803 15.2744C195.413 15.0808 195.936 14.9821 196.371 14.9782ZM183.329 49.8875C184.884 49.3938 187.29 46.448 190.545 41.0502C193.801 35.6524 196.653 30.1982 199.1 24.6875C201.569 19.1367 202.634 15.8275 202.295 14.76C202.266 14.6685 202.19 14.6421 202.068 14.6808C201.031 15.01 199.761 16.0847 198.257 17.9049C196.784 19.7154 195.435 21.6543 194.211 23.7214C192.987 25.7885 191.938 27.6153 191.065 29.2018C190.223 30.7785 189.754 31.7332 189.658 32.0658C189.562 32.3984 189.453 32.584 189.331 32.6227C189.27 32.6421 189.215 32.5755 189.167 32.423L189.041 31.7077C189.028 30.5032 189.483 28.3946 190.407 25.382L190.87 23.825C190.957 23.3608 190.992 23.0981 190.972 23.0371C190.943 22.9456 190.898 22.9096 190.837 22.9289C190.593 23.0064 190.264 23.3963 189.849 24.0987C188.219 26.8988 186.859 29.6471 185.768 32.3436C184.667 35.0097 183.89 37.2705 183.438 39.1261C183.007 40.9416 182.725 42.6428 182.591 44.2297C182.353 46.6552 182.351 48.2339 182.583 48.9659C182.806 49.6674 183.054 49.9746 183.329 49.8875ZM210.936 43.1901C210.59 43.2661 210.238 43.1598 209.878 42.8712C209.527 42.6132 209.308 42.3469 209.221 42.0724C209.134 41.7979 209.138 41.5449 209.232 41.3135C209.317 41.0516 209.432 40.78 209.578 40.4988C209.714 40.187 210.039 39.7312 210.554 39.1314C211.099 38.5219 211.738 38.101 212.47 37.8687C213.048 37.7859 213.429 38.0343 213.613 38.6138C213.903 39.5288 213.713 40.4622 213.041 41.414C212.369 42.3657 211.668 42.9578 210.936 43.1901ZM227.654 1.77583C227.837 1.71774 228.357 1.82138 229.214 2.08674C230.1 2.34241 230.901 2.64238 231.614 2.98664C231.756 3.00892 231.86 3.12681 231.928 3.34031C232.043 3.8075 230.957 6.46868 228.67 11.3238C226.415 16.1693 223.858 21.1774 221 26.3482C218.173 31.5093 216.165 34.5974 214.977 35.6126C214.791 35.873 214.56 36.0468 214.286 36.1339C214.011 36.2211 213.708 36.2167 213.375 36.1208C213.064 35.9847 212.888 35.8557 212.85 35.7337C212.801 35.5812 212.808 35.4447 212.871 35.3241C214.192 32.8232 216.452 27.7248 219.649 20.0288C222.847 12.3329 224.892 7.35279 225.785 5.08859C226.269 3.1221 226.892 2.01784 227.654 1.77583Z" fill="#FFDE3F"/>
</svg>
