<svg width="39" height="32" viewBox="0 0 39 32" fill="none" xmlns="http://www.w3.org/2000/svg">
<path d="M25.0016 6.2439C26.7759 6.2439 28.2276 4.83902 28.2276 3.12195C28.2276 1.40488 26.7759 0 25.0016 0C23.2273 0 21.7756 1.40488 21.7756 3.12195C21.7756 4.83902 23.2273 6.2439 25.0016 6.2439ZM8.06503 16.3902C3.54861 16.3902 0 19.8244 0 24.1951C0 28.5659 3.54861 32 8.06503 32C12.5815 32 16.1301 28.5659 16.1301 24.1951C16.1301 19.8244 12.5815 16.3902 8.06503 16.3902ZM8.06503 29.6585C5.00032 29.6585 2.41951 27.161 2.41951 24.1951C2.41951 21.2293 5.00032 18.7317 8.06503 18.7317C11.1297 18.7317 13.7106 21.2293 13.7106 24.1951C13.7106 27.161 11.1297 29.6585 8.06503 29.6585ZM17.4205 14.0488L21.2917 10.3024L22.5821 11.5512C24.679 13.5805 27.4211 14.8293 30.8084 14.8293V11.7073C28.3889 11.7073 26.4533 10.7707 25.0016 9.36585L21.9369 6.4C21.1304 5.77561 20.3239 5.46341 19.3561 5.46341C18.3883 5.46341 17.5818 5.77561 17.0979 6.4L12.5815 10.7707C11.9362 11.3951 11.6136 12.1756 11.6136 12.9561C11.6136 13.8927 11.9362 14.6732 12.5815 15.1415L17.7431 19.5122V27.3171H20.9691V17.639L17.4205 14.0488ZM30.6471 16.3902C26.1307 16.3902 22.5821 19.8244 22.5821 24.1951C22.5821 28.5659 26.1307 32 30.6471 32C35.1635 32 38.7122 28.5659 38.7122 24.1951C38.7122 19.8244 35.1635 16.3902 30.6471 16.3902ZM30.6471 29.6585C27.5824 29.6585 25.0016 27.161 25.0016 24.1951C25.0016 21.2293 27.5824 18.7317 30.6471 18.7317C33.7118 18.7317 36.2927 21.2293 36.2927 24.1951C36.2927 27.161 33.7118 29.6585 30.6471 29.6585Z" fill="white"/>
</svg>
